<?xml version="1.0" encoding="UTF-8"?>
<!DOCTYPE svg PUBLIC "-//W3C//DTD SVG 1.1//EN" "http://www.w3.org/Graphics/SVG/1.1/DTD/svg11.dtd">
<!-- Creator: CorelDRAW -->
<svg xmlns="http://www.w3.org/2000/svg" xml:space="preserve" width="1.3749mm" height="2.8398mm" version="1.1" style="shape-rendering:geometricPrecision; text-rendering:geometricPrecision; image-rendering:optimizeQuality; fill-rule:evenodd; clip-rule:evenodd"
viewBox="0 0 4.6 9.49"
 xmlns:xlink="http://www.w3.org/1999/xlink"
 xmlns:xodm="http://www.corel.com/coreldraw/odm/2003">
 <defs>
  <style type="text/css">
   <![CDATA[
    .fil0 {fill:#C3C3C4;fill-rule:nonzero}
   ]]>
  </style>
 </defs>
 <g id="PowerClip_x0020_Contents">
  <metadata id="CorelCorpID_0Corel-Layer"/>
  <path class="fil0" d="M-0 0.95c0,-0.13 0.03,-0.26 0.07,-0.37 0.05,-0.11 0.12,-0.21 0.2,-0.3 0.09,-0.09 0.19,-0.15 0.3,-0.2 0.11,-0.05 0.24,-0.08 0.37,-0.08 0.13,0 0.25,0.03 0.37,0.08 0.12,0.05 0.22,0.12 0.3,0.2 0.09,0.09 0.15,0.19 0.2,0.3 0.05,0.12 0.07,0.24 0.07,0.37 0,0.13 -0.03,0.26 -0.07,0.37 -0.05,0.11 -0.12,0.21 -0.2,0.3 -0.09,0.09 -0.19,0.15 -0.3,0.2 -0.11,0.05 -0.24,0.07 -0.37,0.07 -0.13,0 -0.26,-0.02 -0.37,-0.07 -0.12,-0.05 -0.21,-0.12 -0.3,-0.2 -0.08,-0.08 -0.15,-0.18 -0.2,-0.3 -0.05,-0.11 -0.07,-0.24 -0.07,-0.37zm2.7 0c0,-0.13 0.03,-0.26 0.07,-0.37 0.05,-0.11 0.12,-0.21 0.21,-0.3 0.09,-0.09 0.19,-0.15 0.3,-0.2 0.11,-0.05 0.24,-0.08 0.37,-0.08 0.13,0 0.25,0.03 0.37,0.08 0.12,0.05 0.22,0.12 0.3,0.2 0.09,0.09 0.15,0.19 0.21,0.3 0.05,0.12 0.07,0.24 0.07,0.37 0,0.13 -0.03,0.26 -0.07,0.37 -0.05,0.11 -0.12,0.21 -0.21,0.3 -0.09,0.09 -0.19,0.15 -0.3,0.2 -0.11,0.05 -0.24,0.07 -0.37,0.07 -0.13,0 -0.26,-0.02 -0.37,-0.07 -0.12,-0.05 -0.22,-0.12 -0.3,-0.2 -0.08,-0.08 -0.15,-0.18 -0.2,-0.3 -0.05,-0.11 -0.07,-0.24 -0.07,-0.37zm0 3.8c0,-0.13 0.03,-0.26 0.07,-0.37 0.05,-0.11 0.12,-0.21 0.21,-0.3 0.09,-0.09 0.19,-0.15 0.3,-0.2 0.11,-0.05 0.24,-0.08 0.37,-0.08 0.13,0 0.25,0.03 0.37,0.08 0.12,0.05 0.22,0.12 0.3,0.2 0.09,0.09 0.15,0.19 0.21,0.3 0.05,0.12 0.07,0.24 0.07,0.37 0,0.13 -0.03,0.26 -0.07,0.37 -0.05,0.11 -0.12,0.21 -0.21,0.3 -0.09,0.09 -0.19,0.15 -0.3,0.2 -0.11,0.05 -0.24,0.07 -0.37,0.07 -0.13,0 -0.26,-0.02 -0.37,-0.07 -0.12,-0.05 -0.22,-0.12 -0.3,-0.2 -0.08,-0.08 -0.15,-0.18 -0.2,-0.3 -0.05,-0.11 -0.07,-0.24 -0.07,-0.37zm0 3.8c0,-0.13 0.03,-0.26 0.07,-0.37 0.05,-0.11 0.12,-0.21 0.21,-0.3 0.09,-0.09 0.19,-0.15 0.3,-0.2 0.11,-0.05 0.24,-0.08 0.37,-0.08 0.13,0 0.25,0.03 0.37,0.08 0.12,0.05 0.22,0.12 0.3,0.2 0.09,0.09 0.15,0.19 0.21,0.3 0.05,0.12 0.07,0.24 0.07,0.37 0,0.13 -0.03,0.26 -0.07,0.37 -0.05,0.11 -0.12,0.21 -0.21,0.3 -0.09,0.09 -0.19,0.15 -0.3,0.2 -0.11,0.05 -0.24,0.07 -0.37,0.07 -0.13,0 -0.26,-0.02 -0.37,-0.07 -0.12,-0.05 -0.22,-0.12 -0.3,-0.2 -0.08,-0.08 -0.15,-0.18 -0.2,-0.3 -0.05,-0.11 -0.07,-0.24 -0.07,-0.37zm-2.7 -3.8c0,-0.13 0.03,-0.26 0.07,-0.37 0.05,-0.11 0.12,-0.21 0.2,-0.3 0.09,-0.09 0.19,-0.15 0.3,-0.2 0.11,-0.05 0.24,-0.08 0.37,-0.08 0.13,0 0.25,0.03 0.37,0.08 0.12,0.05 0.22,0.12 0.3,0.2 0.09,0.09 0.15,0.19 0.2,0.3 0.05,0.12 0.07,0.24 0.07,0.37 0,0.13 -0.03,0.26 -0.07,0.37 -0.05,0.11 -0.12,0.21 -0.2,0.3 -0.09,0.09 -0.19,0.15 -0.3,0.2 -0.11,0.05 -0.24,0.07 -0.37,0.07 -0.13,0 -0.26,-0.02 -0.37,-0.07 -0.12,-0.05 -0.21,-0.12 -0.3,-0.2 -0.08,-0.08 -0.15,-0.18 -0.2,-0.3 -0.05,-0.11 -0.07,-0.24 -0.07,-0.37zm0 3.8c0,-0.13 0.03,-0.26 0.07,-0.37 0.05,-0.11 0.12,-0.21 0.2,-0.3 0.09,-0.09 0.19,-0.15 0.3,-0.2 0.11,-0.05 0.24,-0.08 0.37,-0.08 0.13,0 0.25,0.03 0.37,0.08 0.12,0.05 0.22,0.12 0.3,0.2 0.09,0.09 0.15,0.19 0.2,0.3 0.05,0.12 0.07,0.24 0.07,0.37 0,0.13 -0.03,0.26 -0.07,0.37 -0.05,0.11 -0.12,0.21 -0.2,0.3 -0.09,0.09 -0.19,0.15 -0.3,0.2 -0.11,0.05 -0.24,0.07 -0.37,0.07 -0.13,0 -0.26,-0.02 -0.37,-0.07 -0.12,-0.05 -0.21,-0.12 -0.3,-0.2 -0.08,-0.08 -0.15,-0.18 -0.2,-0.3 -0.05,-0.11 -0.07,-0.24 -0.07,-0.37z"/>
 </g>
</svg>
