<?xml version="1.0" encoding="UTF-8"?>
<!DOCTYPE svg PUBLIC "-//W3C//DTD SVG 1.1//EN" "http://www.w3.org/Graphics/SVG/1.1/DTD/svg11.dtd">
<!-- Creator: CorelDRAW -->
<svg xmlns="http://www.w3.org/2000/svg" xml:space="preserve" width="10.4478mm" height="10.4478mm" version="1.1" style="shape-rendering:geometricPrecision; text-rendering:geometricPrecision; image-rendering:optimizeQuality; fill-rule:evenodd; clip-rule:evenodd"
viewBox="0 0 17.21 17.21"
 xmlns:xlink="http://www.w3.org/1999/xlink"
 xmlns:xodm="http://www.corel.com/coreldraw/odm/2003">
 <defs>
  <style type="text/css">
   <![CDATA[
    .fil0 {fill:#FEFEFE}
    .fil1 {fill:#36293D;fill-rule:nonzero}
   ]]>
  </style>
 </defs>
 <g id="PowerClip_x0020_Contents">
  <metadata id="CorelCorpID_0Corel-Layer"/>
  <circle class="fil0" cx="8.6" cy="8.6" r="8.6"/>
  <g id="_2504518146640">
   <g id="_01_align_center" data-name="01 align center">
    <path class="fil1" d="M14.68 8.18l0 0c-0.45,-0.99 -2.22,-4.21 -6.08,-4.21 -3.86,0 -5.63,3.22 -6.08,4.21 -0.06,0.13 -0.09,0.28 -0.09,0.42 0,0.15 0.03,0.29 0.09,0.42 0.45,0.99 2.22,4.21 6.08,4.21 3.86,0 5.63,-3.22 6.08,-4.21 0.06,-0.13 0.09,-0.28 0.09,-0.42 0,-0.15 -0.03,-0.29 -0.09,-0.42l0 0zm-6.08 4.02c-3.24,0 -4.76,-2.76 -5.14,-3.59 0.39,-0.85 1.9,-3.61 5.14,-3.61 3.24,0 4.75,2.75 5.14,3.6 -0.39,0.85 -1.91,3.6 -5.14,3.6z"/>
    <path class="fil1" d="M8.6 6.03c-1.42,0 -2.57,1.15 -2.57,2.57 0,1.42 1.15,2.57 2.57,2.57 1.42,0 2.57,-1.15 2.57,-2.57 -0,-1.42 -1.15,-2.57 -2.57,-2.57l0 0zm0 4.11c-0.85,0 -1.54,-0.69 -1.54,-1.54 0,-0.85 0.69,-1.54 1.54,-1.54 0.85,0 1.54,0.69 1.54,1.54 0,0.85 -0.69,1.54 -1.54,1.54l0 0z"/>
   </g>
  </g>
 </g>
</svg>
