<?xml version="1.0" encoding="UTF-8"?>
<!DOCTYPE svg PUBLIC "-//W3C//DTD SVG 1.1//EN" "http://www.w3.org/Graphics/SVG/1.1/DTD/svg11.dtd">
<!-- Creator: CorelDRAW -->
<svg xmlns="http://www.w3.org/2000/svg" xml:space="preserve" width="5.9227mm" height="3.9175mm" version="1.1" style="shape-rendering:geometricPrecision; text-rendering:geometricPrecision; image-rendering:optimizeQuality; fill-rule:evenodd; clip-rule:evenodd"
viewBox="0 0 19.06 12.6"
 xmlns:xlink="http://www.w3.org/1999/xlink"
 xmlns:xodm="http://www.corel.com/coreldraw/odm/2003">
 <defs>
  <style type="text/css">
   <![CDATA[
    .fil0 {fill:#949CA1}
   ]]>
  </style>
 </defs>
 <g id="Layer_x0020_1">
  <metadata id="CorelCorpID_0Corel-Layer"/>
  <path class="fil0" d="M7.83 6.87l-6.69 0c-0.62,0 -1.13,0.51 -1.13,1.13l0 3.47c0,0.62 0.51,1.13 1.13,1.13l6.69 0c0.62,0 1.13,-0.51 1.13,-1.13l0 -3.47c0,-0.62 -0.51,-1.13 -1.13,-1.13zm0 -6.87l-6.69 0c-0.62,0 -1.13,0.51 -1.13,1.13l0 3.47c0,0.62 0.51,1.13 1.13,1.13l6.69 0c0.62,0 1.13,-0.51 1.13,-1.13l0 -3.47c0,-0.62 -0.51,-1.13 -1.13,-1.13zm10.1 0l-6.69 0c-0.62,0 -1.13,0.51 -1.13,1.13l0 3.47c0,0.62 0.51,1.13 1.13,1.13l6.69 0c0.62,0 1.13,-0.51 1.13,-1.13l0 -3.47c0,-0.62 -0.51,-1.13 -1.13,-1.13zm0 6.87l-6.69 0c-0.62,0 -1.13,0.51 -1.13,1.13l0 3.47c0,0.62 0.51,1.13 1.13,1.13l6.69 0c0.62,0 1.13,-0.51 1.13,-1.13l0 -3.47c0,-0.62 -0.51,-1.13 -1.13,-1.13z"/>
 </g>
</svg>
