<?xml version="1.0" encoding="UTF-8"?>
<!DOCTYPE svg PUBLIC "-//W3C//DTD SVG 1.1//EN" "http://www.w3.org/Graphics/SVG/1.1/DTD/svg11.dtd">
<!-- Creator: CorelDRAW -->
<svg xmlns="http://www.w3.org/2000/svg" xml:space="preserve" width="6.5401mm" height="7.5783mm" version="1.1" style="shape-rendering:geometricPrecision; text-rendering:geometricPrecision; image-rendering:optimizeQuality; fill-rule:evenodd; clip-rule:evenodd"
viewBox="0 0 6.7 7.77"
 xmlns:xlink="http://www.w3.org/1999/xlink"
 xmlns:xodm="http://www.corel.com/coreldraw/odm/2003">
 <defs>
  <style type="text/css">
   <![CDATA[
    .fil0 {fill:#7A00C2;fill-rule:nonzero}
   ]]>
  </style>
 </defs>
 <g id="PowerClip_x0020_Contents">
  <metadata id="CorelCorpID_0Corel-Layer"/>
  <path class="fil0" d="M-0 4.93c0,-0.16 0.01,-0.33 0.04,-0.5 0.04,-0.22 0.1,-0.42 0.2,-0.62 0.1,-0.2 0.21,-0.39 0.33,-0.57 0.08,-0.12 0.15,-0.25 0.2,-0.38 0.06,-0.13 0.09,-0.27 0.09,-0.42 0,-0.12 -0.02,-0.22 -0.06,-0.3 -0.04,-0.09 -0.09,-0.17 -0.16,-0.24 -0.07,-0.07 -0.14,-0.13 -0.23,-0.19 -0.09,-0.06 -0.17,-0.11 -0.26,-0.16 -0.04,-0.02 -0.08,-0.06 -0.11,-0.09 -0.03,-0.04 -0.04,-0.08 -0.04,-0.13 0,-0.07 0.02,-0.13 0.07,-0.18l1.02 -1.06c0.05,-0.05 0.12,-0.08 0.19,-0.08 0.05,0 0.09,0.01 0.14,0.04 0.04,0.03 0.08,0.06 0.1,0.11 0.07,0.07 0.13,0.13 0.18,0.18 0.06,0.05 0.11,0.09 0.17,0.13 0.06,0.03 0.12,0.06 0.19,0.07 0.07,0.02 0.16,0.02 0.26,0.02 0.11,0 0.21,-0.01 0.29,-0.04 0.08,-0.03 0.15,-0.06 0.21,-0.1 0.06,-0.04 0.11,-0.08 0.16,-0.13 0.04,-0.05 0.09,-0.09 0.12,-0.13 0.04,-0.04 0.08,-0.07 0.11,-0.1 0.04,-0.02 0.08,-0.04 0.13,-0.04 0.05,0 0.09,0.01 0.13,0.04 0.04,0.03 0.07,0.06 0.11,0.1 0.04,0.04 0.08,0.08 0.12,0.13 0.04,0.05 0.09,0.09 0.15,0.13 0.06,0.04 0.13,0.07 0.22,0.1 0.08,0.02 0.18,0.04 0.3,0.04 0.11,0 0.21,-0.01 0.29,-0.04 0.08,-0.03 0.15,-0.06 0.22,-0.1 0.06,-0.04 0.11,-0.08 0.16,-0.13 0.04,-0.05 0.09,-0.09 0.12,-0.13 0.04,-0.04 0.08,-0.07 0.11,-0.1 0.04,-0.02 0.08,-0.04 0.13,-0.04 0.07,0 0.13,0.03 0.18,0.08l1.03 1.03c0.05,0.05 0.08,0.11 0.08,0.19 0,0.05 -0.01,0.1 -0.04,0.14 -0.03,0.04 -0.06,0.07 -0.11,0.09 -0.09,0.05 -0.18,0.1 -0.26,0.16 -0.08,0.06 -0.16,0.12 -0.23,0.19 -0.07,0.07 -0.12,0.15 -0.16,0.24 -0.04,0.09 -0.06,0.19 -0.06,0.3 0,0.14 0.03,0.29 0.09,0.42 0.06,0.14 0.13,0.26 0.21,0.38 0.12,0.18 0.23,0.37 0.33,0.57 0.1,0.2 0.17,0.41 0.2,0.62 0.02,0.17 0.04,0.33 0.04,0.5 0,0.26 -0.05,0.5 -0.14,0.71 -0.09,0.22 -0.22,0.41 -0.38,0.59 -0.16,0.18 -0.34,0.34 -0.55,0.48 -0.21,0.14 -0.42,0.27 -0.65,0.39 -0.23,0.12 -0.45,0.22 -0.68,0.31 -0.23,0.09 -0.44,0.18 -0.65,0.26 -0.04,0.02 -0.09,0.04 -0.15,0.06 -0.06,0.03 -0.11,0.04 -0.15,0.04 -0.04,0 -0.1,-0.01 -0.15,-0.04 -0.06,-0.03 -0.11,-0.05 -0.14,-0.06 -0.2,-0.08 -0.42,-0.17 -0.65,-0.26 -0.23,-0.09 -0.46,-0.2 -0.68,-0.31 -0.23,-0.12 -0.44,-0.25 -0.65,-0.39 -0.21,-0.14 -0.39,-0.3 -0.55,-0.48 -0.16,-0.18 -0.29,-0.37 -0.38,-0.59 -0.1,-0.21 -0.14,-0.45 -0.14,-0.71z"/>
 </g>
</svg>
