<?xml version="1.0" encoding="UTF-8"?>
<!DOCTYPE svg PUBLIC "-//W3C//DTD SVG 1.1//EN" "http://www.w3.org/Graphics/SVG/1.1/DTD/svg11.dtd">
<!-- Creator: CorelDRAW -->
<svg xmlns="http://www.w3.org/2000/svg" xml:space="preserve" width="7.0097mm" height="8.8618mm" version="1.1" style="shape-rendering:geometricPrecision; text-rendering:geometricPrecision; image-rendering:optimizeQuality; fill-rule:evenodd; clip-rule:evenodd"
viewBox="0 0 7.7 9.74"
 xmlns:xlink="http://www.w3.org/1999/xlink"
 xmlns:xodm="http://www.corel.com/coreldraw/odm/2003">
 <defs>
  <style type="text/css">
   <![CDATA[
    .fil0 {fill:#7A00C2;fill-rule:nonzero}
   ]]>
  </style>
 </defs>
 <g id="PowerClip_x0020_Contents">
  <metadata id="CorelCorpID_0Corel-Layer"/>
  <g id="_2504618754384">
   <polygon class="fil0" points="1.92,0 -0,0 -0,0.57 1.51,0.57 2.08,2.28 2.68,2.28 "/>
   <path class="fil0" d="M5.42 5.99c0,-0.27 -0.06,-0.55 -0.17,-0.8l-0 -0c-0.13,-0.3 -0.16,-0.66 -0.08,-1.04 0.01,-0.05 0.03,-0.1 0.04,-0.16l-3.58 0c0.11,0.41 0.09,0.86 -0.07,1.28 -0.13,0.35 -0.17,0.73 -0.1,1.09 0.14,0.78 0.79,1.48 1.68,1.6l0 1.21 -1.43 0 0 0.57 3.42 0 0 -0.57 -1.43 0 0 -1.21c1.02,-0.15 1.71,-1.01 1.71,-1.97z"/>
   <polygon class="fil0" points="1.44,3.42 2.46,3.42 2.08,2.28 1.02,2.28 "/>
   <polygon class="fil0" points="5.41,3.42 5.83,2.28 2.68,2.28 3.06,3.42 "/>
   <path class="fil0" d="M5.71 0.57c-0.79,0 -1.48,0.47 -1.8,1.14l2.74 0 -0.85 2.29c-0.03,0.08 -0.05,0.18 -0.07,0.27 -0.02,0.1 -0.02,0.2 -0.02,0.29 0,0 0,0 0,0 0.38,0 0.74,-0.1 1.07,-0.31 0.58,-0.37 0.93,-1 0.93,-1.69 0,-1.1 -0.9,-2 -2,-2z"/>
  </g>
 </g>
</svg>
