<?xml version="1.0" encoding="UTF-8"?>
<!DOCTYPE svg PUBLIC "-//W3C//DTD SVG 1.1//EN" "http://www.w3.org/Graphics/SVG/1.1/DTD/svg11.dtd">
<!-- Creator: CorelDRAW -->
<svg xmlns="http://www.w3.org/2000/svg" xml:space="preserve" width="7.2912mm" height="7.2912mm" version="1.1" style="shape-rendering:geometricPrecision; text-rendering:geometricPrecision; image-rendering:optimizeQuality; fill-rule:evenodd; clip-rule:evenodd"
viewBox="0 0 8.34 8.34"
 xmlns:xlink="http://www.w3.org/1999/xlink"
 xmlns:xodm="http://www.corel.com/coreldraw/odm/2003">
 <defs>
  <style type="text/css">
   <![CDATA[
    .fil0 {fill:#7A00C2;fill-rule:nonzero}
   ]]>
  </style>
 </defs>
 <g id="PowerClip_x0020_Contents">
  <metadata id="CorelCorpID_0Corel-Layer"/>
  <path class="fil0" d="M1.3 8.34c-0.11,0 -0.21,-0.02 -0.3,-0.06 -0.1,-0.04 -0.18,-0.1 -0.25,-0.17 -0.07,-0.07 -0.13,-0.15 -0.17,-0.25 -0.04,-0.09 -0.06,-0.19 -0.06,-0.3l0 -3.91c-0.02,0 -0.04,0 -0.07,0 -0.02,0 -0.05,0 -0.07,0 -0.05,0 -0.09,-0 -0.14,-0.01 -0.04,-0.01 -0.08,-0.02 -0.12,-0.03 -0.04,-0.02 -0.07,-0.04 -0.09,-0.08 -0.02,-0.03 -0.03,-0.08 -0.03,-0.14 0,-0.06 0.01,-0.11 0.03,-0.14 0.02,-0.03 0.05,-0.06 0.09,-0.08 0.04,-0.02 0.08,-0.03 0.12,-0.03 0.04,-0.01 0.09,-0.01 0.14,-0.01l0.14 0 0 -1.34c0,-0.24 0.05,-0.47 0.15,-0.68 0.1,-0.22 0.23,-0.41 0.39,-0.57 0.16,-0.16 0.35,-0.29 0.57,-0.39 0.22,-0.1 0.44,-0.15 0.68,-0.15l3.71 0c0.25,0 0.48,0.05 0.7,0.15 0.22,0.1 0.41,0.23 0.57,0.4 0.16,0.17 0.29,0.36 0.38,0.58 0.09,0.22 0.14,0.45 0.14,0.69l0 1.3 0.14 0c0.05,0 0.09,0 0.14,0.01 0.04,0.01 0.08,0.02 0.12,0.03 0.04,0.02 0.07,0.04 0.09,0.08 0.02,0.03 0.03,0.08 0.03,0.14 0,0.06 -0.01,0.11 -0.03,0.14 -0.02,0.03 -0.05,0.06 -0.09,0.08 -0.04,0.02 -0.08,0.03 -0.12,0.03 -0.04,0.01 -0.09,0.01 -0.14,0.01 -0.02,0 -0.05,-0 -0.07,-0 -0.02,-0 -0.04,-0 -0.07,-0l0 3.91c0,0.11 -0.02,0.21 -0.06,0.3 -0.04,0.1 -0.1,0.18 -0.17,0.25 -0.07,0.07 -0.15,0.13 -0.25,0.17 -0.09,0.04 -0.19,0.06 -0.3,0.06l-0.52 0c-0.11,0 -0.21,-0.02 -0.3,-0.06 -0.1,-0.04 -0.18,-0.1 -0.25,-0.17 -0.07,-0.07 -0.13,-0.15 -0.17,-0.25 -0.04,-0.09 -0.06,-0.19 -0.06,-0.3l0 -0.26 -3.13 0 0 0.26c0,0.11 -0.02,0.21 -0.06,0.3 -0.04,0.1 -0.1,0.18 -0.17,0.25 -0.07,0.07 -0.15,0.13 -0.25,0.17 -0.09,0.04 -0.19,0.06 -0.3,0.06l-0.52 0zm-0.26 -4.17l6.25 0 0 -2.37c0,-0.17 -0.03,-0.33 -0.1,-0.49 -0.07,-0.15 -0.16,-0.29 -0.28,-0.4 -0.12,-0.12 -0.25,-0.21 -0.4,-0.28 -0.16,-0.07 -0.32,-0.1 -0.49,-0.1l-3.71 0c-0.17,0 -0.33,0.03 -0.49,0.1 -0.15,0.07 -0.29,0.16 -0.4,0.28 -0.12,0.12 -0.21,0.25 -0.28,0.4 -0.07,0.16 -0.1,0.32 -0.1,0.49l0 2.37zm2.61 -2.61c-0.07,0 -0.13,-0.03 -0.18,-0.08 -0.05,-0.05 -0.08,-0.11 -0.08,-0.18 0,-0.07 0.02,-0.13 0.08,-0.18 0.05,-0.05 0.11,-0.08 0.18,-0.08l1.04 0c0.07,0 0.13,0.03 0.18,0.08 0.05,0.05 0.08,0.11 0.08,0.18 0,0.07 -0.03,0.13 -0.08,0.18 -0.05,0.05 -0.11,0.08 -0.18,0.08l-1.04 0zm-0.52 4.17c0,-0.07 -0.01,-0.14 -0.04,-0.2 -0.03,-0.06 -0.07,-0.12 -0.11,-0.17 -0.05,-0.05 -0.1,-0.08 -0.17,-0.11 -0.06,-0.03 -0.13,-0.04 -0.2,-0.04 -0.07,0 -0.14,0.01 -0.2,0.04 -0.06,0.03 -0.12,0.07 -0.17,0.11 -0.05,0.05 -0.08,0.1 -0.11,0.17 -0.03,0.06 -0.04,0.13 -0.04,0.2 0,0.07 0.01,0.14 0.04,0.21 0.03,0.06 0.06,0.12 0.11,0.17 0.05,0.05 0.1,0.08 0.17,0.11 0.06,0.03 0.13,0.04 0.21,0.04 0.07,0 0.14,-0.01 0.2,-0.04 0.06,-0.03 0.12,-0.07 0.17,-0.11 0.05,-0.05 0.08,-0.1 0.11,-0.17 0.03,-0.06 0.04,-0.13 0.04,-0.2zm3.13 0c0,-0.07 -0.01,-0.14 -0.04,-0.2 -0.03,-0.06 -0.07,-0.12 -0.11,-0.17 -0.05,-0.05 -0.1,-0.08 -0.17,-0.11 -0.06,-0.03 -0.13,-0.04 -0.2,-0.04 -0.07,0 -0.14,0.01 -0.2,0.04 -0.06,0.03 -0.12,0.07 -0.17,0.11 -0.05,0.05 -0.08,0.1 -0.11,0.17 -0.03,0.06 -0.04,0.13 -0.04,0.2 0,0.07 0.01,0.14 0.04,0.21 0.03,0.06 0.06,0.12 0.11,0.17 0.05,0.05 0.1,0.08 0.17,0.11 0.06,0.03 0.13,0.04 0.21,0.04 0.07,0 0.14,-0.01 0.2,-0.04 0.06,-0.03 0.12,-0.07 0.17,-0.11 0.05,-0.05 0.08,-0.1 0.11,-0.17 0.03,-0.06 0.04,-0.13 0.04,-0.2zm-4.43 2.08c0.07,0 0.13,-0.03 0.18,-0.08 0.05,-0.05 0.08,-0.11 0.08,-0.18l0 -0.26 -1.04 0 0 0.26c0,0.07 0.03,0.13 0.08,0.18 0.05,0.05 0.11,0.08 0.18,0.08l0.52 0zm5.21 0c0.07,0 0.13,-0.03 0.18,-0.08 0.05,-0.05 0.08,-0.11 0.08,-0.18l0 -0.26 -1.04 0 0 0.26c0,0.07 0.03,0.13 0.08,0.18 0.05,0.05 0.11,0.08 0.18,0.08l0.52 0z"/>
 </g>
</svg>
