<?xml version="1.0" encoding="UTF-8"?>
<!DOCTYPE svg PUBLIC "-//W3C//DTD SVG 1.1//EN" "http://www.w3.org/Graphics/SVG/1.1/DTD/svg11.dtd">
<!-- Creator: CorelDRAW -->
<svg xmlns="http://www.w3.org/2000/svg" xml:space="preserve" width="8.6551mm" height="8.655mm" version="1.1" style="shape-rendering:geometricPrecision; text-rendering:geometricPrecision; image-rendering:optimizeQuality; fill-rule:evenodd; clip-rule:evenodd"
viewBox="0 0 11.78 11.78"
 xmlns:xlink="http://www.w3.org/1999/xlink"
 xmlns:xodm="http://www.corel.com/coreldraw/odm/2003">
 <defs>
  <style type="text/css">
   <![CDATA[
    .fil0 {fill:#7A00C2;fill-rule:nonzero}
   ]]>
  </style>
 </defs>
 <g id="PowerClip_x0020_Contents">
  <metadata id="CorelCorpID_0Corel-Layer"/>
  <g id="_2504618774304">
   <polygon class="fil0" points="9.12,9.48 10.5,9.48 10.5,6.17 9.12,6.17 "/>
   <polygon class="fil0" points="6.5,9.48 7.88,9.48 7.88,6.17 6.5,6.17 "/>
   <polygon class="fil0" points="3.89,9.48 5.27,9.48 5.27,6.17 3.89,6.17 "/>
   <polygon class="fil0" points="1.28,9.48 2.66,9.48 2.66,6.17 1.28,6.17 "/>
   <path class="fil0" d="M10.96 5.14l0 -0.35 -10.14 0 0 0.35c0,0.19 0.15,0.34 0.34,0.34l9.45 0c0.19,0 0.34,-0.15 0.34,-0.34z"/>
   <path class="fil0" d="M11.43 10.17l-11.09 0c-0.19,0 -0.35,0.15 -0.35,0.35l0 0.92c0,0.19 0.15,0.35 0.35,0.35l11.09 0c0.19,0 0.34,-0.15 0.34,-0.35l0 -0.92c0,-0.19 -0.15,-0.35 -0.34,-0.35z"/>
   <path class="fil0" d="M0.35 4.1l11.09 0c0.15,0 0.29,-0.1 0.33,-0.25 0.04,-0.15 -0.02,-0.31 -0.15,-0.39l-5.54 -3.41c-0.11,-0.07 -0.25,-0.07 -0.36,0l-5.54 3.41c-0.13,0.08 -0.19,0.24 -0.15,0.39 0.04,0.15 0.18,0.25 0.33,0.25zm5.31 -2.07l0.47 0c0.19,0 0.34,0.15 0.34,0.35 0,0.19 -0.15,0.34 -0.34,0.34l-0.47 0c-0.19,0 -0.34,-0.15 -0.34,-0.34 0,-0.19 0.15,-0.35 0.34,-0.35z"/>
  </g>
 </g>
</svg>
