<?xml version="1.0" encoding="UTF-8"?>
<!DOCTYPE svg PUBLIC "-//W3C//DTD SVG 1.1//EN" "http://www.w3.org/Graphics/SVG/1.1/DTD/svg11.dtd">
<!-- Creator: CorelDRAW -->
<svg xmlns="http://www.w3.org/2000/svg" xml:space="preserve" width="7.5968mm" height="8.6422mm" version="1.1" style="shape-rendering:geometricPrecision; text-rendering:geometricPrecision; image-rendering:optimizeQuality; fill-rule:evenodd; clip-rule:evenodd"
viewBox="0 0 9.06 10.3"
 xmlns:xlink="http://www.w3.org/1999/xlink"
 xmlns:xodm="http://www.corel.com/coreldraw/odm/2003">
 <defs>
  <style type="text/css">
   <![CDATA[
    .fil0 {fill:#7A00C2;fill-rule:nonzero}
   ]]>
  </style>
 </defs>
 <g id="PowerClip_x0020_Contents">
  <metadata id="CorelCorpID_0Corel-Layer"/>
  <path class="fil0" d="M9.05 3.47c0.02,-0.27 -0.04,-0.53 -0.11,-0.78 -0.06,-0.15 -0.11,-0.32 -0.19,-0.46 -0.42,-0.8 -1.18,-1.35 -2.06,-1.49 0.04,-0.08 0.06,-0.15 0.06,-0.23 0,-0.29 -0.23,-0.51 -0.5,-0.51 -0.29,0 -0.5,0.23 -0.5,0.5 0,0.08 0.02,0.15 0.06,0.23 -0.86,0.15 -1.64,0.71 -2.04,1.49 -0.19,0.4 -0.29,0.8 -0.31,1.24 0,0.17 0.1,0.38 0.29,0.42 0.15,0.04 0.3,-0.02 0.4,-0.13 0.04,-0.06 0.08,-0.13 0.11,-0.19 0.1,-0.15 0.25,-0.25 0.44,-0.25 0.15,0 0.32,0.08 0.38,0.25 0.04,0.1 0.08,0.21 0.17,0.29 0.13,0.1 0.32,0.08 0.46,-0.02 0.04,-0.04 0.08,-0.08 0.1,-0.11 0.02,-0.06 0.04,-0.11 0.08,-0.17l0.02 -0.02 0 3.68 -0.19 0c-0.06,-0.71 -0.63,-1.28 -1.33,-1.28l-1.94 0 -0.65 -1.11c-0.25,-0.44 -0.82,-0.59 -1.26,-0.34 -0.23,0.13 -0.42,0.32 -0.5,0.59 -0.08,0.25 -0.04,0.51 0.1,0.72l1.75 2.9c0.06,0.08 0.11,0.15 0.19,0.21 -0.1,0.27 -0.19,0.51 -0.3,0.78 -0.02,0.06 -0.04,0.1 -0.06,0.15 -0.08,0.19 0.1,0.42 0.29,0.48 0.21,0.04 0.38,-0.08 0.46,-0.27 0.11,-0.32 0.25,-0.63 0.36,-0.95l4.69 0c0.13,0.3 0.27,0.59 0.4,0.9 0.02,0.06 0.04,0.1 0.08,0.15 0.1,0.19 0.36,0.23 0.53,0.13 0.19,-0.11 0.21,-0.32 0.13,-0.51 -0.11,-0.27 -0.25,-0.55 -0.36,-0.82 0.06,-0.04 0.11,-0.08 0.15,-0.13 0.17,-0.19 0.27,-0.42 0.27,-0.69 -0.02,-0.51 -0.42,-0.91 -0.93,-0.91l-1.14 0 0 -3.68c0.02,0.02 0.02,0.04 0.04,0.06 0.06,0.11 0.11,0.23 0.23,0.3 0.13,0.08 0.31,0.04 0.42,-0.08 0.06,-0.06 0.08,-0.11 0.11,-0.19 0.1,-0.23 0.38,-0.34 0.61,-0.25 0.13,0.06 0.23,0.21 0.29,0.32 0.08,0.17 0.27,0.27 0.44,0.21 0.19,-0.06 0.29,-0.25 0.29,-0.42zm-4.67 3.2c0.29,0 0.51,0.23 0.53,0.51l-1.73 0 -0.3 -0.51 1.51 0z"/>
 </g>
</svg>
