<?xml version="1.0" encoding="UTF-8"?>
<!DOCTYPE svg PUBLIC "-//W3C//DTD SVG 1.1//EN" "http://www.w3.org/Graphics/SVG/1.1/DTD/svg11.dtd">
<!-- Creator: CorelDRAW -->
<svg xmlns="http://www.w3.org/2000/svg" xml:space="preserve" width="6.4988mm" height="6.4988mm" version="1.1" style="shape-rendering:geometricPrecision; text-rendering:geometricPrecision; image-rendering:optimizeQuality; fill-rule:evenodd; clip-rule:evenodd"
viewBox="0 0 6.62 6.62"
 xmlns:xlink="http://www.w3.org/1999/xlink"
 xmlns:xodm="http://www.corel.com/coreldraw/odm/2003">
 <defs>
  <style type="text/css">
   <![CDATA[
    .fil0 {fill:#7A00C2;fill-rule:nonzero}
   ]]>
  </style>
 </defs>
 <g id="PowerClip_x0020_Contents">
  <metadata id="CorelCorpID_0Corel-Layer"/>
  <path class="fil0" d="M3.94 3.31c0.33,-0.31 0.8,-0.76 1.26,-1.21 0.52,-0.51 1.01,-0.99 1.24,-1.18 0.11,-0.1 0.18,-0.24 0.18,-0.39 0,-0.19 -0.1,-0.35 -0.26,-0.44 -0.16,-0.09 -0.35,-0.09 -0.51,0.01 -0.51,0.32 -2.54,1.77 -2.54,2.09 0,0.09 -0,0.2 -0.04,0.33 -0.15,-0.26 -0.24,-0.5 -0.24,-0.6 0,-0.2 -0.67,-0.84 -1.98,-1.9 -0.05,-0.04 -0.15,-0.03 -0.2,0.02 -0.05,0.05 -0.05,0.14 0,0.2l1.31 1.31c0.05,0.05 0.05,0.14 0,0.2 -0.05,0.05 -0.14,0.05 -0.19,0l-1.31 -1.31c-0.05,-0.05 -0.14,-0.05 -0.19,0l-0.02 0.02c-0.05,0.05 -0.05,0.14 0,0.2l1.31 1.31c0.05,0.05 0.05,0.14 0,0.2 -0.05,0.05 -0.14,0.05 -0.19,0l-1.31 -1.31c-0.05,-0.05 -0.15,-0.04 -0.21,0.01 -0.05,0.05 -0.05,0.13 -0.01,0.18 1.06,1.32 1.7,1.98 1.9,1.98 0.12,0 0.41,0.11 0.71,0.31 -0.61,0.54 -1.86,1.59 -2.39,2.04 -0.16,0.13 -0.25,0.33 -0.25,0.54 0,0.39 0.31,0.7 0.7,0.7 0.21,0 0.4,-0.09 0.54,-0.25 0.46,-0.55 1.54,-1.84 2.07,-2.43 0.55,0.61 1.69,1.97 2.07,2.43 0.13,0.16 0.33,0.25 0.54,0.25 0.39,0 0.7,-0.31 0.7,-0.7 0,-0.21 -0.09,-0.4 -0.25,-0.54 -0.46,-0.38 -1.81,-1.51 -2.42,-2.07z"/>
 </g>
</svg>
