<?xml version="1.0" encoding="UTF-8"?>
<!DOCTYPE svg PUBLIC "-//W3C//DTD SVG 1.1//EN" "http://www.w3.org/Graphics/SVG/1.1/DTD/svg11.dtd">
<!-- Creator: CorelDRAW -->
<svg xmlns="http://www.w3.org/2000/svg" xml:space="preserve" width="6.9333mm" height="6.9336mm" version="1.1" style="shape-rendering:geometricPrecision; text-rendering:geometricPrecision; image-rendering:optimizeQuality; fill-rule:evenodd; clip-rule:evenodd"
viewBox="0 0 7.54 7.54"
 xmlns:xlink="http://www.w3.org/1999/xlink"
 xmlns:xodm="http://www.corel.com/coreldraw/odm/2003">
 <defs>
  <style type="text/css">
   <![CDATA[
    .fil0 {fill:#7A00C2;fill-rule:nonzero}
   ]]>
  </style>
 </defs>
 <g id="PowerClip_x0020_Contents">
  <metadata id="CorelCorpID_0Corel-Layer"/>
  <path class="fil0" d="M6.4 3.32l-1.42 1.42 -2.18 -2.18 1.42 -1.42c0.29,-0.29 0.68,-0.45 1.09,-0.45 0.85,0 1.54,0.69 1.54,1.54 0,0.41 -0.16,0.8 -0.45,1.09zm-3.99 0.12l-1.03 1.03c-0.23,0.23 -0.35,0.53 -0.35,0.85 0,0.09 -0.08,0.17 -0.17,0.17 -0.09,0 -0.17,-0.08 -0.17,-0.17 0,-0.41 0.16,-0.8 0.45,-1.09l1.03 -1.03c0.07,-0.07 0.18,-0.07 0.24,0 0.07,0.07 0.07,0.18 0,0.24zm2.9 -3.43c-0.59,0 -1.15,0.23 -1.57,0.65l-3.08 3.08c-0.42,0.42 -0.65,0.98 -0.65,1.57 0,1.23 1,2.23 2.23,2.23 0.6,0 1.15,-0.23 1.57,-0.65l3.08 -3.08c0.42,-0.42 0.65,-0.98 0.65,-1.57 0,-1.23 -1,-2.23 -2.23,-2.23z"/>
 </g>
</svg>
