<?xml version="1.0" encoding="UTF-8"?>
<!DOCTYPE svg PUBLIC "-//W3C//DTD SVG 1.1//EN" "http://www.w3.org/Graphics/SVG/1.1/DTD/svg11.dtd">
<!-- Creator: CorelDRAW -->
<svg xmlns="http://www.w3.org/2000/svg" xml:space="preserve" width="8.3624mm" height="6.3888mm" version="1.1" style="shape-rendering:geometricPrecision; text-rendering:geometricPrecision; image-rendering:optimizeQuality; fill-rule:evenodd; clip-rule:evenodd"
viewBox="0 0 10.99 8.39"
 xmlns:xlink="http://www.w3.org/1999/xlink"
 xmlns:xodm="http://www.corel.com/coreldraw/odm/2003">
 <defs>
  <style type="text/css">
   <![CDATA[
    .fil0 {fill:#7A00C2;fill-rule:nonzero}
   ]]>
  </style>
 </defs>
 <g id="PowerClip_x0020_Contents">
  <metadata id="CorelCorpID_0Corel-Layer"/>
  <g id="_2504622777776">
   <path class="fil0" d="M1.68 0l-0 0c-0.1,0 -0.2,0.04 -0.28,0.11 -0.07,0.07 -0.12,0.17 -0.12,0.28l0 5.9c0,0.22 0.18,0.39 0.39,0.39 0.92,0 2.45,0.19 3.51,1.3l0 -6.17c0,-0.07 -0.02,-0.14 -0.05,-0.2 -0.87,-1.4 -2.54,-1.61 -3.45,-1.61z"/>
   <path class="fil0" d="M9.7 6.29l0 -5.9c0,-0.11 -0.04,-0.2 -0.12,-0.28 -0.07,-0.07 -0.17,-0.11 -0.28,-0.11l-0 0c-0.92,0 -2.59,0.21 -3.45,1.61 -0.04,0.06 -0.05,0.13 -0.05,0.2l0 6.17c1.06,-1.11 2.59,-1.3 3.51,-1.3 0.22,-0 0.39,-0.18 0.39,-0.39z"/>
   <path class="fil0" d="M10.59 1.36l-0.28 0 0 4.93c0,0.55 -0.45,1 -1,1 -0.78,0 -2.06,0.15 -2.96,1.01 1.57,-0.38 3.22,-0.13 4.16,0.08 0.12,0.03 0.24,-0 0.33,-0.08 0.09,-0.07 0.15,-0.19 0.15,-0.31l0 -6.25c0,-0.22 -0.18,-0.39 -0.39,-0.39z"/>
   <path class="fil0" d="M0.68 6.29l0 -4.93 -0.28 0c-0.22,0 -0.39,0.18 -0.39,0.39l0 6.25c0,0.12 0.05,0.23 0.15,0.31 0.09,0.08 0.22,0.1 0.33,0.08 0.94,-0.21 2.59,-0.46 4.16,-0.08 -0.91,-0.86 -2.19,-1.01 -2.96,-1.01 -0.55,-0 -1,-0.45 -1,-1z"/>
  </g>
 </g>
</svg>
