<?xml version="1.0" encoding="UTF-8"?>
<!DOCTYPE svg PUBLIC "-//W3C//DTD SVG 1.1//EN" "http://www.w3.org/Graphics/SVG/1.1/DTD/svg11.dtd">
<!-- Creator: CorelDRAW -->
<svg xmlns="http://www.w3.org/2000/svg" xml:space="preserve" width="7.9273mm" height="7.5475mm" version="1.1" style="shape-rendering:geometricPrecision; text-rendering:geometricPrecision; image-rendering:optimizeQuality; fill-rule:evenodd; clip-rule:evenodd"
viewBox="0 0 9.87 9.39"
 xmlns:xlink="http://www.w3.org/1999/xlink"
 xmlns:xodm="http://www.corel.com/coreldraw/odm/2003">
 <defs>
  <style type="text/css">
   <![CDATA[
    .fil0 {fill:#7A00C2;fill-rule:nonzero}
   ]]>
  </style>
 </defs>
 <g id="PowerClip_x0020_Contents">
  <metadata id="CorelCorpID_0Corel-Layer"/>
  <g id="_2504525695872">
   <path class="fil0" d="M7.47 7.1c-0.63,-0 -1.15,0.51 -1.15,1.15 -0,0.63 0.51,1.15 1.15,1.15 0.63,0 1.15,-0.51 1.15,-1.15 0,-0 0,-0 0,-0 -0,-0.63 -0.51,-1.15 -1.15,-1.15z"/>
   <path class="fil0" d="M9.43 1.6l-6.99 0 -0.11 -0.74c-0.07,-0.48 -0.47,-0.84 -0.95,-0.86l-0.97 0c-0.23,0.01 -0.42,0.21 -0.42,0.44 0,0.24 0.2,0.44 0.44,0.44l0.9 0c0.06,-0 0.1,0.04 0.11,0.1l0.68 4.67c0.09,0.59 0.6,1.03 1.21,1.03l4.6 0c0.58,0 1.08,-0.41 1.19,-0.97l0.72 -3.59c0.05,-0.24 -0.11,-0.47 -0.35,-0.52 -0.03,-0.01 -0.06,-0.01 -0.08,-0.01z"/>
   <path class="fil0" d="M3.51 7.1c-0.63,0.03 -1.13,0.56 -1.1,1.19 0.02,0.61 0.52,1.09 1.13,1.1l0.03 0c0.63,-0.03 1.12,-0.56 1.1,-1.2 -0.03,-0.62 -0.53,-1.1 -1.15,-1.1l0 0z"/>
  </g>
 </g>
</svg>
