<?xml version="1.0" encoding="UTF-8"?>
<!DOCTYPE svg PUBLIC "-//W3C//DTD SVG 1.1//EN" "http://www.w3.org/Graphics/SVG/1.1/DTD/svg11.dtd">
<!-- Creator: CorelDRAW -->
<svg xmlns="http://www.w3.org/2000/svg" xml:space="preserve" width="8.8997mm" height="8.8997mm" version="1.1" style="shape-rendering:geometricPrecision; text-rendering:geometricPrecision; image-rendering:optimizeQuality; fill-rule:evenodd; clip-rule:evenodd"
viewBox="0 0 12.46 12.46"
 xmlns:xlink="http://www.w3.org/1999/xlink"
 xmlns:xodm="http://www.corel.com/coreldraw/odm/2003">
 <defs>
  <style type="text/css">
   <![CDATA[
    .fil0 {fill:#7A00C2;fill-rule:nonzero}
   ]]>
  </style>
 </defs>
 <g id="PowerClip_x0020_Contents">
  <metadata id="CorelCorpID_0Corel-Layer"/>
  <g id="_2504618747328">
   <path class="fil0" d="M1.7 4.94c-0.14,-0.14 -0.14,-0.37 0,-0.52 0.14,-0.14 0.37,-0.14 0.52,0l0.65 0.65 0 -1.86c0,-0.2 0.16,-0.36 0.36,-0.36 0.2,0 0.36,0.16 0.36,0.36l0 0.65 0.65 -0.65c0.14,-0.14 0.37,-0.14 0.52,0 0.14,0.14 0.14,0.37 0,0.52l-1.16 1.16 0 3.14c1.38,-0.16 2.47,-1.23 2.79,-2.55 0.19,-0.8 0.09,-1.62 -0.32,-2.45 -0.31,-0.63 -0.78,-1.26 -1.43,-1.92 -0.42,-0.42 -0.8,-0.76 -1.17,-1.03 -0.13,-0.1 -0.32,-0.11 -0.46,0 -0.37,0.27 -0.75,0.61 -1.17,1.03 -0.66,0.66 -1.13,1.29 -1.43,1.92 -0.4,0.83 -0.51,1.66 -0.32,2.45 0.32,1.32 1.41,2.38 2.77,2.54l0 -1.92 -1.16 -1.16z"/>
   <path class="fil0" d="M12.09 9.37c0.2,0 0.36,-0.16 0.36,-0.36l0 -1.46c0,-0.2 -0.16,-0.36 -0.36,-0.36l-5.94 0c-0.2,0 -0.36,0.16 -0.36,0.36l0 1.46c0,0.2 0.16,0.36 0.36,0.36l0.36 0 0 0.73 -0.36 0c-0.2,0 -0.36,0.16 -0.36,0.36 0,0.2 0.16,0.36 0.36,0.36l0.36 0 0 0.9 -2.92 0 0 -3.7c-0.24,0.03 -0.49,0.03 -0.73,-0l0 3.7 -2.5 0c-0.2,0 -0.36,0.16 -0.36,0.36 0,0.2 0.16,0.36 0.36,0.36l11.73 0c0.2,0 0.36,-0.16 0.36,-0.36 0,-0.2 -0.16,-0.36 -0.36,-0.36l-0.36 0 0 -0.9 0.36 0c0.2,0 0.36,-0.16 0.36,-0.36 0,-0.2 -0.16,-0.36 -0.36,-0.36l-0.36 0 0 -0.73 0.36 0zm-1.09 2.35l-3.75 0 0 -0.9 3.75 0 0 0.9zm0 -1.62l-3.75 0 0 -0.73 3.75 0 0 0.73z"/>
  </g>
 </g>
</svg>
