<?xml version="1.0" encoding="UTF-8"?>
<!DOCTYPE svg PUBLIC "-//W3C//DTD SVG 1.1//EN" "http://www.w3.org/Graphics/SVG/1.1/DTD/svg11.dtd">
<!-- Creator: CorelDRAW -->
<svg xmlns="http://www.w3.org/2000/svg" xml:space="preserve" width="7.5719mm" height="7.5719mm" version="1.1" style="shape-rendering:geometricPrecision; text-rendering:geometricPrecision; image-rendering:optimizeQuality; fill-rule:evenodd; clip-rule:evenodd"
viewBox="0 0 9.72 9.72"
 xmlns:xlink="http://www.w3.org/1999/xlink"
 xmlns:xodm="http://www.corel.com/coreldraw/odm/2003">
 <defs>
  <style type="text/css">
   <![CDATA[
    .fil0 {fill:#9900CC;fill-rule:nonzero}
   ]]>
  </style>
 </defs>
 <g id="Layer_x0020_1">
  <metadata id="CorelCorpID_0Corel-Layer"/>
  <path class="fil0" d="M4.86 0c-2.68,0 -4.86,2.17 -4.86,4.86 0,2.68 2.17,4.86 4.86,4.86 2.68,0 4.86,-2.18 4.86,-4.86 0,-2.68 -2.18,-4.86 -4.86,-4.86zm1.01 7.53c-0.25,0.1 -0.45,0.17 -0.6,0.22 -0.15,0.05 -0.32,0.08 -0.52,0.08 -0.3,0 -0.54,-0.07 -0.71,-0.22 -0.17,-0.15 -0.25,-0.34 -0.25,-0.56 0,-0.09 0.01,-0.18 0.02,-0.27 0.01,-0.09 0.03,-0.19 0.06,-0.31l0.31 -1.11c0.03,-0.11 0.05,-0.21 0.07,-0.3 0.02,-0.1 0.03,-0.18 0.03,-0.26 0,-0.14 -0.03,-0.24 -0.09,-0.3 -0.06,-0.06 -0.17,-0.08 -0.33,-0.08 -0.08,0 -0.16,0.01 -0.25,0.04 -0.08,0.03 -0.16,0.05 -0.22,0.07l0.08 -0.34c0.2,-0.08 0.4,-0.15 0.59,-0.21 0.19,-0.06 0.36,-0.09 0.53,-0.09 0.3,0 0.53,0.07 0.69,0.22 0.16,0.14 0.25,0.33 0.25,0.57 0,0.05 -0.01,0.13 -0.02,0.25 -0.01,0.12 -0.03,0.23 -0.06,0.33l-0.31 1.1c-0.03,0.09 -0.05,0.19 -0.07,0.3 -0.02,0.11 -0.03,0.2 -0.03,0.26 0,0.15 0.03,0.25 0.1,0.3 0.07,0.05 0.18,0.08 0.34,0.08 0.08,0 0.16,-0.01 0.26,-0.04 0.09,-0.03 0.16,-0.05 0.21,-0.07l-0.08 0.34zm-0.05 -4.47c-0.15,0.13 -0.32,0.2 -0.53,0.2 -0.2,0 -0.38,-0.07 -0.53,-0.2 -0.14,-0.13 -0.22,-0.3 -0.22,-0.49 0,-0.19 0.07,-0.36 0.22,-0.49 0.15,-0.13 0.32,-0.2 0.53,-0.2 0.21,0 0.38,0.07 0.53,0.2 0.14,0.14 0.22,0.3 0.22,0.49 0,0.19 -0.07,0.36 -0.22,0.49z"/>
 </g>
</svg>
