<?xml version="1.0" encoding="UTF-8"?>
<!DOCTYPE svg PUBLIC "-//W3C//DTD SVG 1.1//EN" "http://www.w3.org/Graphics/SVG/1.1/DTD/svg11.dtd">
<!-- Creator: CorelDRAW -->
<svg xmlns="http://www.w3.org/2000/svg" xml:space="preserve" width="6.4382mm" height="8.5844mm" version="1.1" style="shape-rendering:geometricPrecision; text-rendering:geometricPrecision; image-rendering:optimizeQuality; fill-rule:evenodd; clip-rule:evenodd"
viewBox="0 0 70.95 94.61"
 xmlns:xlink="http://www.w3.org/1999/xlink"
 xmlns:xodm="http://www.corel.com/coreldraw/odm/2003">
 <defs>
  <style type="text/css">
   <![CDATA[
    .fil0 {fill:#7A00C2;fill-rule:nonzero}
    .fil1 {fill:#FEFEFE;fill-rule:nonzero}
   ]]>
  </style>
 </defs>
 <g id="Layer_x0020_1">
  <metadata id="CorelCorpID_0Corel-Layer"/>
  <g id="_2504618792256">
   <path class="fil0" d="M35.48 0c-19.58,0.03 -35.45,15.9 -35.48,35.48 0,25.47 33.05,57.37 34.46,58.71 0.57,0.55 1.47,0.55 2.04,0 1.4,-1.35 34.46,-33.24 34.46,-58.71 -0.03,-19.58 -15.89,-35.45 -35.48,-35.48z"/>
   <path class="fil1" d="M35.48 51.74c-6.58,0 -12.51,-3.96 -15.02,-10.04 -2.52,-6.08 -1.13,-13.07 3.52,-17.72 4.65,-4.65 11.64,-6.04 17.72,-3.53 6.08,2.52 10.04,8.45 10.04,15.02 -0.01,8.98 -7.28,16.26 -16.26,16.26z"/>
  </g>
 </g>
</svg>
