<?xml version="1.0" encoding="UTF-8"?>
<!DOCTYPE svg PUBLIC "-//W3C//DTD SVG 1.1//EN" "http://www.w3.org/Graphics/SVG/1.1/DTD/svg11.dtd">
<!-- Creator: CorelDRAW -->
<svg xmlns="http://www.w3.org/2000/svg" xml:space="preserve" width="18.87mm" height="18.87mm" version="1.1" style="shape-rendering:geometricPrecision; text-rendering:geometricPrecision; image-rendering:optimizeQuality; fill-rule:evenodd; clip-rule:evenodd"
viewBox="0 0 56.74 56.74"
 xmlns:xlink="http://www.w3.org/1999/xlink"
 xmlns:xodm="http://www.corel.com/coreldraw/odm/2003">
 <defs>
  <style type="text/css">
   <![CDATA[
    .fil0 {fill:#FEFEFE}
    .fil5 {fill:#FEFEFE;fill-rule:nonzero}
    .fil1 {fill:#EEE3D9;fill-rule:nonzero}
    .fil3 {fill:#BEB89F;fill-rule:nonzero}
    .fil2 {fill:#A5D206;fill-rule:nonzero}
    .fil4 {fill:#6CCFDC;fill-rule:nonzero}
   ]]>
  </style>
 </defs>
 <g id="PowerClip_x0020_Contents">
  <metadata id="CorelCorpID_0Corel-Layer"/>
  <circle class="fil0" cx="28.37" cy="28.37" r="28.37"/>
  <g id="_2504619065952">
   <path class="fil1" d="M28.33 51.9c-13.12,0 -23.76,-10.64 -23.76,-23.76 0,-13.12 10.64,-23.76 23.76,-23.76 13.12,0 23.76,10.64 23.76,23.76 0,13.12 -10.64,23.76 -23.76,23.76z"/>
   <polygon class="fil2" points="27.44,42.19 34.52,15.92 42.11,18.28 35.39,44.17 "/>
   <path class="fil3" d="M29.25 42.66l-1.96 9.22c0.35,0.02 0.7,0.02 1.05,0.02 0.02,0 0.04,-0 0.06,-0l1.92 -9.01 -1.07 -0.23z"/>
   <path class="fil4" d="M33.78 51.27l6.6 -29.19 4.84 -10.65c4.25,4.29 6.87,10.2 6.87,16.71 0,11.25 -7.81,20.67 -18.31,23.13z"/>
   <path class="fil5" d="M6.98 38.58l-1.67 -8.44 -0.04 -0.16 -0.7 -2.25c-0,0.13 -0.01,0.27 -0.01,0.4 0,3.75 0.87,7.29 2.41,10.44z"/>
   <path class="fil5" d="M35.45 50.82l6.38 -28.25 4.51 -9.92c-0.71,-0.83 -1.48,-1.6 -2.3,-2.32l-5.06 11.13 -0.1 0.3 -6.75 29.85c1.13,-0.18 2.24,-0.44 3.31,-0.78z"/>
   <path class="fil5" d="M42.27 17.76l-28.06 -8.73c-0.36,0.26 -0.7,0.54 -1.04,0.82l28.78 8.95 0.32 -1.04z"/>
   <path class="fil5" d="M15.84 10.13l0.96 -2.77c-0.5,0.28 -0.99,0.57 -1.46,0.88l-0.53 1.52 1.03 0.36z"/>
   <path class="fil5" d="M9.04 42.01l8.42 -1.74 17.79 4.42 0.26 -1.06 -17.91 -4.45 -0.24 -0 -8.99 1.86c0.21,0.33 0.44,0.66 0.67,0.98z"/>
   <path class="fil5" d="M4.7 30.65l27.84 -11.87 0.32 -0.41 0.49 -2.88 -1.08 -0.18 -0.44 2.58 -27.23 11.61c0.02,0.38 0.05,0.77 0.09,1.15z"/>
   <path class="fil5" d="M4.9 24.16l12.78 -5.38 0.32 -0.38 1.7 -7.13 -1.06 -0.25 -1.64 6.87 -11.85 4.99c-0.1,0.43 -0.18,0.86 -0.25,1.29z"/>
   <polygon class="fil5" points="15.76,25.38 13.8,19.86 12.78,20.22 14.73,25.74 "/>
   <path class="fil5" d="M30.32 14.39l-0.29 -2.86 -0.2 -0.37 -7.37 -6.05c-0.43,0.11 -0.86,0.23 -1.28,0.36l7.78 6.39 0.27 2.64 1.08 -0.11z"/>
   <path class="fil5" d="M27.95 10.07l1.16 -3.44 -0.19 -0.61 -2.11 -1.58c-0.54,0.03 -1.08,0.09 -1.61,0.15l2.74 2.06 -1.03 3.07 1.03 0.35z"/>
   <path class="fil5" d="M35.01 16.14l4.17 -9.14c-0.32,-0.17 -0.65,-0.32 -0.98,-0.48l-4.18 9.17 0.99 0.45z"/>
   <polygon class="fil5" points="17.99,39.87 23.31,22.5 22.26,22.19 16.95,39.55 "/>
   <polygon class="fil5" points="21.28,40.69 27.36,20.78 26.31,20.46 20.24,40.37 "/>
  </g>
 </g>
</svg>
