<?xml version="1.0" encoding="UTF-8"?>
<!DOCTYPE svg PUBLIC "-//W3C//DTD SVG 1.1//EN" "http://www.w3.org/Graphics/SVG/1.1/DTD/svg11.dtd">
<!-- Creator: CorelDRAW -->
<svg xmlns="http://www.w3.org/2000/svg" xml:space="preserve" width="3.4389mm" height="6.3501mm" version="1.1" style="shape-rendering:geometricPrecision; text-rendering:geometricPrecision; image-rendering:optimizeQuality; fill-rule:evenodd; clip-rule:evenodd"
viewBox="0 0 8.22 15.18"
 xmlns:xlink="http://www.w3.org/1999/xlink"
 xmlns:xodm="http://www.corel.com/coreldraw/odm/2003">
 <defs>
  <style type="text/css">
   <![CDATA[
    .fil0 {fill:#36293D;fill-rule:nonzero}
   ]]>
  </style>
 </defs>
 <g id="PowerClip_x0020_Contents">
  <metadata id="CorelCorpID_0Corel-Layer"/>
  <path class="fil0" d="M-0 7.59c0,-0.17 0.06,-0.32 0.19,-0.45l6.96 -6.95c0.12,-0.12 0.27,-0.19 0.45,-0.19 0.17,0 0.32,0.06 0.44,0.19 0.12,0.12 0.19,0.27 0.19,0.44 0,0.17 -0.06,0.32 -0.19,0.45l-6.5 6.51 6.5 6.51c0.12,0.12 0.19,0.27 0.19,0.44 0,0.17 -0.06,0.32 -0.19,0.45 -0.12,0.12 -0.27,0.19 -0.44,0.19 -0.17,0 -0.32,-0.06 -0.45,-0.19l-6.96 -6.95c-0.12,-0.12 -0.19,-0.27 -0.19,-0.45z"/>
 </g>
</svg>
