<?xml version="1.0" encoding="UTF-8"?>
<!DOCTYPE svg PUBLIC "-//W3C//DTD SVG 1.1//EN" "http://www.w3.org/Graphics/SVG/1.1/DTD/svg11.dtd">
<!-- Creator: CorelDRAW -->
<svg xmlns="http://www.w3.org/2000/svg" xml:space="preserve" width="76.0231mm" height="103.449mm" version="1.1" style="shape-rendering:geometricPrecision; text-rendering:geometricPrecision; image-rendering:optimizeQuality; fill-rule:evenodd; clip-rule:evenodd"
viewBox="0 0 1535.15 2088.95"
 xmlns:xlink="http://www.w3.org/1999/xlink"
 xmlns:xodm="http://www.corel.com/coreldraw/odm/2003">
 <defs>
  <style type="text/css">
   <![CDATA[
    .fil2 {fill:#FEFEFE}
    .fil0 {fill:#9900CC;fill-rule:nonzero}
    .fil3 {fill:#FEFEFE;fill-opacity:0.701961}
    .fil1 {fill:url(#id0);fill-rule:nonzero}
   ]]>
  </style>
  <linearGradient id="id0" gradientUnits="userSpaceOnUse" x1="450" y1="1190.37" x2="727.37" y2="91.57">
   <stop offset="0" style="stop-opacity:1; stop-color:#9900CC"/>
   <stop offset="1" style="stop-opacity:1; stop-color:#4E008E"/>
  </linearGradient>
 </defs>
 <g id="Layer_x0020_1">
  <metadata id="CorelCorpID_0Corel-Layer"/>
  <path class="fil0" d="M116.12 478.74c-39.79,89.08 -62.52,188.67 -63.86,295.33 -0.08,36.55 2.73,73.54 8.06,110.77 5.34,37.23 13.2,74.72 23.24,112.25 10.04,37.53 22.26,75.12 36.29,112.56 14.04,37.44 29.91,74.76 47.25,111.75 17.33,36.98 36.14,73.64 56.06,109.78 19.92,36.14 40.97,71.76 62.77,106.67 21.8,34.91 44.37,69.11 67.35,102.41 22.98,33.3 46.37,65.71 69.82,97.02 23.44,31.31 46.95,61.52 70.15,90.47 23.2,28.93 46.12,56.6 68.38,82.79 22.25,26.18 43.87,50.91 64.48,73.95 20.61,23.06 40.22,44.44 58.48,63.98 18.25,19.53 35.14,37.22 50.34,52.85 15.19,15.63 28.67,29.23 40.08,40.59 11.41,11.35 20.76,20.48 27.7,27.18 6.93,6.69 11.47,10.96 13.22,12.62 0.7,0.67 1.45,1.3 2.21,1.88 0.76,0.57 1.56,1.1 2.39,1.59 0.82,0.48 1.68,0.92 2.54,1.3 0.87,0.39 1.77,0.74 2.67,1.03 0.9,0.29 1.83,0.54 2.77,0.75 0.94,0.21 1.89,0.38 2.86,0.49 0.96,0.11 1.93,0.19 2.91,0.21 0.97,0.02 1.97,0.01 2.94,-0.04 0.98,-0.05 1.97,-0.16 2.95,-0.3 0.98,-0.14 1.96,-0.34 2.93,-0.56 0.97,-0.23 1.93,-0.51 2.88,-0.82 0.95,-0.31 1.9,-0.67 2.82,-1.05 0.92,-0.39 1.83,-0.83 2.72,-1.3 0.89,-0.47 1.77,-1 2.62,-1.54 0.84,-0.55 1.68,-1.14 2.47,-1.77 0.79,-0.63 1.56,-1.3 2.31,-2.01 1.97,-1.85 6.44,-6.34 13.08,-13.24 6.64,-6.92 15.48,-16.26 26.15,-27.82 10.67,-11.56 23.2,-25.34 37.26,-41.15 14.05,-15.8 29.65,-33.63 46.44,-53.25 16.79,-19.62 34.8,-41.07 53.69,-64.1 18.89,-23.05 38.68,-47.69 59.01,-73.73 20.33,-26.04 41.25,-53.48 62.39,-82.1 21.14,-28.62 42.53,-58.45 63.83,-89.24 62.53,-90.41 123.1,-186.51 174.51,-286.56 245.06,-476.93 195.99,-1076.25 -371.53,-1257.13 -337.45,-107.57 -742.87,18.7 -907.62,387.52zm684.67 -58.69c215.22,0 389.69,174.47 389.69,389.69 0,339.83 -401.34,517.64 -653.49,272.12 -223.28,-217.43 -39.22,-590.22 248.11,-577.98 -0.98,-26.83 -2.02,-54.57 -3.12,-83.37 6.23,-0.3 12.5,-0.46 18.8,-0.46z"/>
  <path class="fil1" d="M765.27 0.78c-412.57,-18.55 -760.67,294.93 -765.26,721.05 -0.32,146.21 45.5,299.39 114.84,447.33 69.34,147.94 162.23,290.63 256,415.88 93.78,125.24 188.48,233.04 261.49,311.17 73.01,78.14 124.32,126.62 131.33,133.23 1.47,1.2 3,2.26 4.61,3.18 1.6,0.91 3.26,1.68 4.98,2.28 1.71,0.6 3.49,1.05 5.3,1.33 1.81,0.27 3.69,0.38 5.59,0.3 5.35,-260.45 9.36,-455.8 11.73,-617.83 1.19,-80.99 1.97,-153.65 2.3,-221.97 -5.71,-0.47 -11.38,-1.04 -17.02,-1.72 -81.19,-5.97 -163.2,-38.72 -234.27,-103.86 -1.03,-0.93 -2.06,-1.87 -3.08,-2.81 -2.3,-2.12 -4.56,-4.28 -6.79,-6.45l-0.03 -0.03 -0.04 -0.04c-3.44,-3.35 -6.8,-6.76 -10.09,-10.23l-0.06 -0.07c-56.82,-59.87 -90.94,-136.53 -90.94,-220.1 0,-34.43 5.79,-67.7 16.58,-99.1 42.21,-140.5 171.11,-255.33 332.66,-248.45 -10.67,-132.41 -26.37,-285.74 -19.83,-503.1z"/>
  <path class="fil2" d="M1133.63 1286.32c2.9,-4.3 6.49,-7.77 10.49,-10.37 4,-2.59 8.41,-4.33 12.97,-5.1 4.55,-0.79 9.26,-0.63 13.83,0.49 4.58,1.13 9.04,3.26 13.09,6.44 4.02,3.04 7.28,6.85 9.72,11.14 2.45,4.29 4.08,9.06 4.84,14.01 0.76,4.93 0.67,10.05 -0.33,15.03 -1,4.98 -2.91,9.82 -5.76,14.24 -9.22,14.01 -19.17,27.39 -29.79,40.09 -10.62,12.7 -21.91,24.74 -33.79,36.04 -11.88,11.31 -24.38,21.9 -37.4,31.71 -13.02,9.82 -26.58,18.86 -40.61,27.1 -14.24,8.22 -28.96,15.65 -44.07,22.2 -15.1,6.55 -30.62,12.26 -46.46,17.03 -15.83,4.78 -32,8.64 -48.41,11.52 -16.41,2.89 -33.09,4.79 -49.93,5.68 -16.98,0.9 -33.92,0.8 -50.74,-0.3 -16.82,-1.1 -33.53,-3.19 -50.03,-6.23 -16.51,-3.06 -32.82,-7.08 -48.86,-12.03 -16.04,-4.96 -31.81,-10.86 -47.22,-17.67 -0.29,-0.11 -0.5,-0.19 -0.69,-0.25 -0.18,-0.07 -0.32,-0.12 -0.47,-0.18 -0.14,-0.05 -0.28,-0.12 -0.46,-0.17 -0.17,-0.07 -0.39,-0.15 -0.67,-0.25 -61.22,-27.82 -116.95,-68.99 -161.93,-122.56 -14.55,-16.97 -12.47,-42.84 4.62,-57.2 4.26,-3.64 9.07,-6.24 14.08,-7.82 5.03,-1.58 10.27,-2.15 15.44,-1.75 5.16,0.4 10.25,1.79 14.94,4.12 4.69,2.32 9,5.61 12.61,9.79 9.26,10.99 19.07,21.38 29.35,31.11 10.27,9.74 21.04,18.84 32.2,27.27 11.16,8.42 22.74,16.2 34.67,23.27 11.93,7.08 24.2,13.45 36.77,19.12 0.24,0.17 0.43,0.3 0.58,0.4 0.15,0.1 0.29,0.17 0.41,0.23 0.12,0.05 0.25,0.09 0.41,0.13 0.17,0.04 0.37,0.08 0.64,0.14 12.66,5.67 25.61,10.61 38.79,14.79 13.18,4.18 26.59,7.6 40.17,10.21 13.57,2.61 27.32,4.44 41.16,5.46 13.84,1.01 27.8,1.21 41.8,0.56 14.03,-0.72 27.9,-2.26 41.54,-4.6 13.63,-2.33 27.04,-5.46 40.15,-9.32 13.12,-3.86 25.95,-8.48 38.42,-13.79 12.47,-5.31 24.6,-11.34 36.32,-18.01 11.61,-6.74 22.85,-14.2 33.65,-22.31 10.8,-8.11 21.17,-16.89 31.05,-26.27 9.87,-9.38 19.26,-19.36 28.09,-29.91 8.84,-10.54 17.13,-21.64 24.82,-33.23z"/>
  <path class="fil3" d="M800.79 420.05c215.22,0 389.69,174.47 389.69,389.69 0,339.83 -401.34,517.64 -653.49,272.12 -223.28,-217.43 -39.22,-590.22 248.11,-577.98 -0.98,-26.83 -2.02,-54.57 -3.12,-83.37 6.23,-0.3 12.5,-0.46 18.8,-0.46z"/>
 </g>
</svg>
