<?xml version="1.0" encoding="UTF-8"?>
<!DOCTYPE svg PUBLIC "-//W3C//DTD SVG 1.1//EN" "http://www.w3.org/Graphics/SVG/1.1/DTD/svg11.dtd">
<!-- Creator: CorelDRAW -->
<svg xmlns="http://www.w3.org/2000/svg" xml:space="preserve" width="10.7962mm" height="10.7962mm" version="1.1" style="shape-rendering:geometricPrecision; text-rendering:geometricPrecision; image-rendering:optimizeQuality; fill-rule:evenodd; clip-rule:evenodd"
viewBox="0 0 79.42 79.42"
 xmlns:xlink="http://www.w3.org/1999/xlink"
 xmlns:xodm="http://www.corel.com/coreldraw/odm/2003">
 <defs>
  <style type="text/css">
   <![CDATA[
    .fil0 {fill:#FEFEFE;fill-rule:nonzero}
   ]]>
  </style>
 </defs>
 <g id="Layer_x0020_1">
  <metadata id="CorelCorpID_0Corel-Layer"/>
  <path class="fil0" d="M2.49 42.18c-0.68,0 -1.26,-0.24 -1.75,-0.73 -0.49,-0.49 -0.74,-1.07 -0.74,-1.75 0,-3.64 0.48,-7.16 1.42,-10.55 0.94,-3.39 2.28,-6.55 4.01,-9.5 1.73,-2.94 3.81,-5.63 6.22,-8.05 2.42,-2.41 5.11,-4.47 8.05,-6.19 2.95,-1.72 6.12,-3.06 9.5,-4 3.39,-0.94 6.91,-1.42 10.55,-1.42 2.82,0 5.6,0.3 8.35,0.91 2.75,0.61 5.41,1.48 7.95,2.63 2.54,1.15 4.95,2.55 7.23,4.22 2.28,1.67 4.34,3.56 6.21,5.69l0 -10.99c0,-0.66 0.25,-1.24 0.74,-1.73 0.49,-0.49 1.07,-0.74 1.75,-0.74 0.66,0 1.24,0.25 1.73,0.74 0.49,0.49 0.74,1.07 0.74,1.73 0,3.14 0,6.25 0.01,9.36 0.01,3.1 0.03,6.21 0.03,9.35 0,0.44 -0.04,0.87 -0.09,1.3 -0.07,0.42 -0.19,0.81 -0.36,1.17 -0.16,0.34 -0.41,0.63 -0.75,0.85 -0.33,0.23 -0.77,0.33 -1.31,0.33l-19.86 0c-0.68,0 -1.26,-0.25 -1.75,-0.74 -0.49,-0.49 -0.74,-1.07 -0.74,-1.75 0,-0.66 0.25,-1.24 0.74,-1.73 0.49,-0.49 1.07,-0.74 1.75,-0.74l16.08 0c-1.63,-2.33 -3.49,-4.42 -5.6,-6.26 -2.1,-1.85 -4.38,-3.41 -6.83,-4.7 -2.44,-1.27 -5.02,-2.25 -7.73,-2.93 -2.71,-0.68 -5.49,-1.01 -8.34,-1.01 -2.69,0 -5.32,0.3 -7.92,0.91 -2.58,0.61 -5.06,1.5 -7.43,2.66 -2.36,1.15 -4.58,2.58 -6.64,4.26 -2.06,1.68 -3.92,3.59 -5.55,5.73 -2.33,3.06 -4.12,6.39 -5.35,10.01 -1.24,3.63 -1.87,7.35 -1.87,11.17 0,0.68 -0.25,1.26 -0.74,1.75 -0.49,0.49 -1.07,0.73 -1.73,0.73zm76.93 -2.48c0,3.64 -0.48,7.15 -1.42,10.52 -0.94,3.38 -2.28,6.54 -4.01,9.49 -1.73,2.94 -3.8,5.63 -6.21,8.05 -2.41,2.41 -5.08,4.49 -8.02,6.22 -2.95,1.73 -6.12,3.07 -9.49,4.01 -3.36,0.94 -6.88,1.42 -10.52,1.42 -2.85,0 -5.64,-0.29 -8.39,-0.89 -2.75,-0.6 -5.41,-1.47 -7.97,-2.62 -2.57,-1.15 -4.98,-2.57 -7.25,-4.22 -2.28,-1.67 -4.34,-3.59 -6.21,-5.73l0 10.97c0,0.68 -0.25,1.26 -0.74,1.75 -0.49,0.49 -1.07,0.74 -1.73,0.74 -0.67,0 -1.26,-0.25 -1.75,-0.74 -0.49,-0.49 -0.74,-1.07 -0.74,-1.75 0,-3.12 0,-6.23 -0.01,-9.34 -0.01,-3.1 -0.03,-6.21 -0.03,-9.35 0,-0.41 0.04,-0.83 0.09,-1.27 0.07,-0.45 0.19,-0.83 0.36,-1.19 0.16,-0.34 0.41,-0.63 0.75,-0.85 0.33,-0.23 0.78,-0.33 1.32,-0.33l19.86 0c0.66,0 1.24,0.25 1.73,0.74 0.49,0.49 0.74,1.07 0.74,1.73 0,0.67 -0.25,1.26 -0.74,1.75 -0.49,0.49 -1.07,0.74 -1.73,0.74l-16.1 0c1.63,2.36 3.49,4.45 5.6,6.29 2.1,1.83 4.39,3.39 6.84,4.67 2.46,1.27 5.04,2.25 7.76,2.93 2.71,0.68 5.49,1.01 8.34,1.01 2.66,0 5.29,-0.3 7.89,-0.93 2.59,-0.62 5.08,-1.52 7.45,-2.67 2.36,-1.16 4.57,-2.59 6.63,-4.28 2.05,-1.68 3.89,-3.57 5.52,-5.69 2.33,-3.06 4.12,-6.39 5.35,-10.01 1.24,-3.63 1.87,-7.35 1.87,-11.17 0,-0.68 0.25,-1.26 0.74,-1.75 0.49,-0.49 1.07,-0.74 1.75,-0.74 0.66,0 1.24,0.25 1.73,0.74 0.49,0.49 0.74,1.07 0.74,1.75z"/>
 </g>
</svg>
