<?xml version="1.0" encoding="UTF-8"?>
<!DOCTYPE svg PUBLIC "-//W3C//DTD SVG 1.1//EN" "http://www.w3.org/Graphics/SVG/1.1/DTD/svg11.dtd">
<!-- Creator: CorelDRAW -->
<svg xmlns="http://www.w3.org/2000/svg" xml:space="preserve" width="91.0553mm" height="26.5934mm" version="1.1" style="shape-rendering:geometricPrecision; text-rendering:geometricPrecision; image-rendering:optimizeQuality; fill-rule:evenodd; clip-rule:evenodd"
viewBox="0 0 1241.93 362.72"
 xmlns:xlink="http://www.w3.org/1999/xlink"
 xmlns:xodm="http://www.corel.com/coreldraw/odm/2003">
 <defs>
  <style type="text/css">
   <![CDATA[
    .fil4 {fill:#FEFEFE}
    .fil1 {fill:#36293D;fill-rule:nonzero}
    .fil0 {fill:#626366;fill-rule:nonzero}
    .fil2 {fill:#9900CC;fill-rule:nonzero}
    .fil3 {fill:url(#id0);fill-rule:nonzero}
   ]]>
  </style>
  <linearGradient id="id0" gradientUnits="userSpaceOnUse" x1="78.14" y1="206.69" x2="126.3" y2="15.9">
   <stop offset="0" style="stop-opacity:1; stop-color:#9900CC"/>
   <stop offset="1" style="stop-opacity:1; stop-color:#4E008E"/>
  </linearGradient>
 </defs>
 <g id="Layer_x0020_1">
  <metadata id="CorelCorpID_0Corel-Layer"/>
  <path class="fil0" d="M316.3 308.85l-19.34 -28.62 6.09 0 16.08 24.01 -2.55 0 16.22 -24.01 5.88 0 -19.48 28.62 -2.91 0zm-1.06 20.12l0 -23.87 5.24 0 0 23.87 -5.24 0z"/>
  <path id="_1" class="fil0" d="M350.8 329.67c-3.21,0 -6.13,-0.78 -8.75,-2.34 -2.62,-1.56 -4.7,-3.66 -6.23,-6.3 -1.53,-2.64 -2.3,-5.6 -2.3,-8.85 0,-3.21 0.77,-6.12 2.3,-8.71 1.53,-2.6 3.61,-4.66 6.23,-6.2 2.62,-1.53 5.54,-2.3 8.75,-2.3 3.26,0 6.19,0.76 8.78,2.27 2.6,1.51 4.66,3.58 6.2,6.2 1.53,2.62 2.3,5.54 2.3,8.75 0,3.3 -0.77,6.27 -2.3,8.89 -1.53,2.62 -3.6,4.71 -6.2,6.27 -2.6,1.56 -5.52,2.34 -8.78,2.34zm0 -4.82c2.36,0 4.45,-0.54 6.27,-1.63 1.82,-1.09 3.26,-2.6 4.32,-4.53 1.06,-1.94 1.59,-4.11 1.59,-6.52 0,-2.41 -0.53,-4.55 -1.59,-6.41 -1.06,-1.87 -2.5,-3.34 -4.32,-4.43 -1.82,-1.09 -3.91,-1.63 -6.27,-1.63 -2.31,0 -4.39,0.54 -6.23,1.63 -1.84,1.09 -3.28,2.56 -4.32,4.43 -1.04,1.86 -1.56,4 -1.56,6.41 0,2.46 0.52,4.64 1.56,6.55 1.04,1.91 2.48,3.41 4.32,4.5 1.84,1.09 3.92,1.63 6.23,1.63z"/>
  <path id="_2" class="fil0" d="M389.11 329.67c-2.69,0 -5.1,-0.62 -7.22,-1.88 -2.13,-1.25 -3.79,-2.96 -4.99,-5.14 -1.2,-2.17 -1.81,-4.72 -1.81,-7.65l0 -19.34 5.03 0 0 19.12c0,2.03 0.37,3.8 1.1,5.31 0.73,1.51 1.78,2.69 3.15,3.54 1.37,0.85 2.95,1.28 4.75,1.28 2.79,0 4.99,-0.92 6.62,-2.76 1.63,-1.84 2.44,-4.3 2.44,-7.37l0 -19.12 4.96 0 0 19.34c0,2.88 -0.59,5.43 -1.77,7.65 -1.18,2.22 -2.83,3.94 -4.96,5.17 -2.13,1.23 -4.56,1.84 -7.3,1.84z"/>
  <path id="_3" class="fil0" d="M412.42 328.96l0 -33.29 4.96 0 0 33.29 -4.96 0zm4.96 -19.41l-2.05 -0.92c0,-4.2 1.03,-7.53 3.08,-9.99 2.05,-2.46 4.88,-3.68 8.46,-3.68 1.65,0 3.16,0.29 4.53,0.89 1.37,0.59 2.64,1.52 3.82,2.8l-3.26 3.47c-0.8,-0.9 -1.69,-1.54 -2.66,-1.91 -0.97,-0.38 -2.06,-0.57 -3.29,-0.57 -2.55,0 -4.63,0.84 -6.23,2.51 -1.61,1.68 -2.41,4.14 -2.41,7.4z"/>
  <path id="_4" class="fil0" d="M474.18 329.67c-2.55,0 -4.84,-0.52 -6.87,-1.56 -2.03,-1.04 -3.69,-2.47 -4.99,-4.29 -1.3,-1.82 -2.09,-3.93 -2.37,-6.34l0 -10.41c0.28,-2.46 1.09,-4.59 2.41,-6.41 1.32,-1.82 3.01,-3.22 5.06,-4.21 2.05,-0.99 4.31,-1.49 6.76,-1.49 3.07,0 5.83,0.77 8.29,2.3 2.46,1.53 4.4,3.61 5.84,6.23 1.44,2.62 2.16,5.58 2.16,8.89 0,3.26 -0.71,6.19 -2.13,8.78 -1.42,2.6 -3.36,4.66 -5.84,6.2 -2.48,1.53 -5.25,2.3 -8.32,2.3zm-0.85 -4.75c2.36,0 4.44,-0.53 6.23,-1.59 1.79,-1.06 3.2,-2.55 4.21,-4.46 1.01,-1.91 1.52,-4.1 1.52,-6.55 0,-2.5 -0.51,-4.7 -1.52,-6.59 -1.02,-1.89 -2.42,-3.38 -4.21,-4.46 -1.79,-1.09 -3.85,-1.63 -6.16,-1.63 -2.31,0 -4.36,0.54 -6.13,1.63 -1.77,1.09 -3.15,2.57 -4.14,4.46 -0.99,1.89 -1.49,4.08 -1.49,6.59 0,2.46 0.5,4.64 1.49,6.55 0.99,1.91 2.36,3.4 4.11,4.46 1.75,1.06 3.78,1.59 6.09,1.59zm-16.36 18.06l0 -47.31 4.96 0 0 8.5 -0.99 8.08 0.99 8.14 0 22.59 -4.96 0z"/>
  <polygon id="_5" class="fil0" points="498.4,328.96 498.4,278.82 503.36,278.82 503.36,328.96 "/>
  <path id="_6" class="fil0" d="M527.87 329.67c-3.16,0 -6,-0.77 -8.5,-2.3 -2.5,-1.54 -4.47,-3.6 -5.91,-6.2 -1.44,-2.6 -2.16,-5.53 -2.16,-8.78 0,-3.3 0.72,-6.27 2.16,-8.89 1.44,-2.62 3.41,-4.7 5.91,-6.23 2.5,-1.53 5.31,-2.3 8.43,-2.3 2.55,0 4.83,0.51 6.83,1.52 2.01,1.01 3.64,2.43 4.89,4.25 1.25,1.82 2.02,3.93 2.3,6.34l0 10.41c-0.28,2.41 -1.05,4.53 -2.3,6.38 -1.25,1.84 -2.88,3.27 -4.89,4.29 -2.01,1.01 -4.26,1.52 -6.76,1.52zm0.78 -4.75c3.45,0 6.22,-1.16 8.32,-3.47 2.1,-2.31 3.15,-5.36 3.15,-9.14 0,-2.5 -0.48,-4.71 -1.45,-6.62 -0.97,-1.91 -2.31,-3.4 -4.04,-4.46 -1.72,-1.06 -3.74,-1.59 -6.06,-1.59 -2.36,0 -4.45,0.54 -6.27,1.63 -1.82,1.09 -3.26,2.59 -4.32,4.5 -1.06,1.91 -1.59,4.1 -1.59,6.55 0,2.46 0.53,4.63 1.59,6.52 1.06,1.89 2.51,3.38 4.36,4.46 1.84,1.09 3.94,1.63 6.3,1.63zm11.19 4.04l0 -8.92 0.99 -8.22 -0.99 -8 0 -8.15 4.96 0 0 33.29 -4.96 0z"/>
  <path id="_7" class="fil0" d="M570.01 329.67c-3.26,0 -6.2,-0.77 -8.82,-2.3 -2.62,-1.54 -4.7,-3.63 -6.23,-6.27 -1.53,-2.64 -2.3,-5.6 -2.3,-8.85 0,-3.26 0.77,-6.2 2.3,-8.82 1.53,-2.62 3.61,-4.69 6.23,-6.2 2.62,-1.51 5.56,-2.27 8.82,-2.27 2.5,0 4.84,0.47 7.01,1.42 2.17,0.95 4.01,2.27 5.53,3.97l-3.26 3.33c-1.13,-1.28 -2.5,-2.25 -4.11,-2.94 -1.61,-0.68 -3.33,-1.03 -5.17,-1.03 -2.36,0 -4.46,0.54 -6.3,1.63 -1.84,1.09 -3.28,2.56 -4.32,4.43 -1.04,1.86 -1.56,4.02 -1.56,6.48 0,2.41 0.52,4.57 1.56,6.48 1.04,1.91 2.48,3.41 4.32,4.5 1.84,1.09 3.94,1.63 6.3,1.63 1.89,0 3.64,-0.34 5.24,-1.03 1.61,-0.68 2.97,-1.66 4.11,-2.94l3.33 3.33c-1.56,1.75 -3.44,3.09 -5.63,4.04 -2.2,0.94 -4.54,1.42 -7.05,1.42z"/>
  <path id="_8" class="fil0" d="M604.36 329.67c-3.35,0 -6.35,-0.76 -9,-2.27 -2.64,-1.51 -4.73,-3.59 -6.27,-6.23 -1.53,-2.64 -2.3,-5.62 -2.3,-8.92 0,-3.26 0.76,-6.2 2.27,-8.82 1.51,-2.62 3.57,-4.69 6.16,-6.2 2.6,-1.51 5.5,-2.27 8.71,-2.27 3.02,0 5.7,0.68 8.04,2.05 2.34,1.37 4.18,3.27 5.53,5.7 1.35,2.43 2.02,5.23 2.02,8.39 0,0.38 -0.02,0.81 -0.07,1.31 -0.05,0.5 -0.14,1.07 -0.28,1.74l-28.83 0 0 -4.25 26.14 0 -1.77 1.56c0.05,-2.46 -0.37,-4.57 -1.24,-6.34 -0.87,-1.77 -2.13,-3.14 -3.75,-4.11 -1.63,-0.97 -3.6,-1.45 -5.92,-1.45 -2.41,0 -4.51,0.52 -6.3,1.56 -1.79,1.04 -3.2,2.49 -4.21,4.36 -1.02,1.87 -1.52,4.07 -1.52,6.62 0,2.55 0.53,4.79 1.59,6.73 1.06,1.94 2.55,3.45 4.46,4.53 1.91,1.09 4.12,1.63 6.62,1.63 2.03,0 3.9,-0.37 5.59,-1.1 1.7,-0.73 3.14,-1.83 4.32,-3.29l3.19 3.26c-1.56,1.84 -3.48,3.27 -5.77,4.29 -2.29,1.01 -4.76,1.52 -7.4,1.52z"/>
  <path id="_9" class="fil0" d="M632.34 329.67c-1.18,0 -2.15,-0.4 -2.9,-1.2 -0.76,-0.8 -1.13,-1.77 -1.13,-2.9 0,-1.13 0.38,-2.09 1.13,-2.87 0.76,-0.78 1.72,-1.17 2.9,-1.17 1.13,0 2.08,0.39 2.83,1.17 0.76,0.78 1.13,1.73 1.13,2.87 0,1.13 -0.38,2.1 -1.13,2.9 -0.76,0.8 -1.7,1.2 -2.83,1.2z"/>
  <path id="_10" class="fil0" d="M677.6 308.85l-19.34 -28.62 6.09 0 16.08 24.01 -2.55 0 16.22 -24.01 5.88 0 -19.48 28.62 -2.91 0zm-1.06 20.12l0 -23.87 5.24 0 0 23.87 -5.24 0z"/>
  <path id="_11" class="fil0" d="M712.09 329.67c-3.21,0 -6.13,-0.78 -8.75,-2.34 -2.62,-1.56 -4.7,-3.66 -6.23,-6.3 -1.53,-2.64 -2.3,-5.6 -2.3,-8.85 0,-3.21 0.77,-6.12 2.3,-8.71 1.53,-2.6 3.61,-4.66 6.23,-6.2 2.62,-1.53 5.54,-2.3 8.75,-2.3 3.26,0 6.19,0.76 8.78,2.27 2.6,1.51 4.66,3.58 6.2,6.2 1.53,2.62 2.3,5.54 2.3,8.75 0,3.3 -0.77,6.27 -2.3,8.89 -1.53,2.62 -3.6,4.71 -6.2,6.27 -2.6,1.56 -5.52,2.34 -8.78,2.34zm0 -4.82c2.36,0 4.45,-0.54 6.27,-1.63 1.82,-1.09 3.26,-2.6 4.32,-4.53 1.06,-1.94 1.59,-4.11 1.59,-6.52 0,-2.41 -0.53,-4.55 -1.59,-6.41 -1.06,-1.87 -2.5,-3.34 -4.32,-4.43 -1.82,-1.09 -3.91,-1.63 -6.27,-1.63 -2.31,0 -4.39,0.54 -6.23,1.63 -1.84,1.09 -3.28,2.56 -4.32,4.43 -1.04,1.86 -1.56,4 -1.56,6.41 0,2.46 0.52,4.64 1.56,6.55 1.04,1.91 2.48,3.41 4.32,4.5 1.84,1.09 3.92,1.63 6.23,1.63z"/>
  <path id="_12" class="fil0" d="M750.41 329.67c-2.69,0 -5.1,-0.62 -7.22,-1.88 -2.13,-1.25 -3.79,-2.96 -4.99,-5.14 -1.2,-2.17 -1.81,-4.72 -1.81,-7.65l0 -19.34 5.03 0 0 19.12c0,2.03 0.37,3.8 1.1,5.31 0.73,1.51 1.78,2.69 3.15,3.54 1.37,0.85 2.95,1.28 4.75,1.28 2.79,0 4.99,-0.92 6.62,-2.76 1.63,-1.84 2.44,-4.3 2.44,-7.37l0 -19.12 4.96 0 0 19.34c0,2.88 -0.59,5.43 -1.77,7.65 -1.18,2.22 -2.83,3.94 -4.96,5.17 -2.13,1.23 -4.56,1.84 -7.3,1.84z"/>
  <path id="_13" class="fil0" d="M773.72 328.96l0 -33.29 4.96 0 0 33.29 -4.96 0zm4.96 -19.41l-2.05 -0.92c0,-4.2 1.03,-7.53 3.08,-9.99 2.05,-2.46 4.88,-3.68 8.46,-3.68 1.65,0 3.16,0.29 4.53,0.89 1.37,0.59 2.64,1.52 3.82,2.8l-3.26 3.47c-0.8,-0.9 -1.69,-1.54 -2.66,-1.91 -0.97,-0.38 -2.06,-0.57 -3.29,-0.57 -2.55,0 -4.63,0.84 -6.23,2.51 -1.61,1.68 -2.41,4.14 -2.41,7.4z"/>
  <path id="_14" class="fil0" d="M833.42 329.67c-3.26,0 -6.2,-0.77 -8.82,-2.3 -2.62,-1.54 -4.7,-3.63 -6.23,-6.27 -1.53,-2.64 -2.3,-5.6 -2.3,-8.85 0,-3.26 0.77,-6.2 2.3,-8.82 1.53,-2.62 3.61,-4.69 6.23,-6.2 2.62,-1.51 5.56,-2.27 8.82,-2.27 2.5,0 4.84,0.47 7.01,1.42 2.17,0.95 4.01,2.27 5.53,3.97l-3.26 3.33c-1.13,-1.28 -2.5,-2.25 -4.11,-2.94 -1.61,-0.68 -3.33,-1.03 -5.17,-1.03 -2.36,0 -4.46,0.54 -6.3,1.63 -1.84,1.09 -3.28,2.56 -4.32,4.43 -1.04,1.86 -1.56,4.02 -1.56,6.48 0,2.41 0.52,4.57 1.56,6.48 1.04,1.91 2.48,3.41 4.32,4.5 1.84,1.09 3.94,1.63 6.3,1.63 1.89,0 3.64,-0.34 5.24,-1.03 1.61,-0.68 2.97,-1.66 4.11,-2.94l3.33 3.33c-1.56,1.75 -3.44,3.09 -5.63,4.04 -2.2,0.94 -4.54,1.42 -7.05,1.42z"/>
  <path id="_15" class="fil0" d="M877.27 328.96l0 -19.55c0,-2.93 -0.86,-5.3 -2.58,-7.12 -1.72,-1.82 -4,-2.73 -6.84,-2.73 -1.94,0 -3.63,0.43 -5.1,1.28 -1.46,0.85 -2.62,2.01 -3.47,3.47 -0.85,1.46 -1.28,3.14 -1.28,5.03l-2.27 -1.27c0,-2.5 0.59,-4.75 1.77,-6.73 1.18,-1.98 2.77,-3.54 4.78,-4.67 2.01,-1.13 4.31,-1.7 6.91,-1.7 2.55,0 4.82,0.58 6.8,1.73 1.98,1.16 3.53,2.75 4.64,4.78 1.11,2.03 1.66,4.39 1.66,7.08l0 20.4 -5.03 0zm-24.22 0l0 -50.15 4.96 0 0 50.15 -4.96 0z"/>
  <path id="_16" class="fil0" d="M906.66 329.67c-3.21,0 -6.13,-0.78 -8.75,-2.34 -2.62,-1.56 -4.7,-3.66 -6.23,-6.3 -1.53,-2.64 -2.3,-5.6 -2.3,-8.85 0,-3.21 0.77,-6.12 2.3,-8.71 1.53,-2.6 3.61,-4.66 6.23,-6.2 2.62,-1.53 5.54,-2.3 8.75,-2.3 3.26,0 6.19,0.76 8.78,2.27 2.6,1.51 4.66,3.58 6.2,6.2 1.53,2.62 2.3,5.54 2.3,8.75 0,3.3 -0.77,6.27 -2.3,8.89 -1.53,2.62 -3.6,4.71 -6.2,6.27 -2.6,1.56 -5.52,2.34 -8.78,2.34zm0 -4.82c2.36,0 4.45,-0.54 6.27,-1.63 1.82,-1.09 3.26,-2.6 4.32,-4.53 1.06,-1.94 1.59,-4.11 1.59,-6.52 0,-2.41 -0.53,-4.55 -1.59,-6.41 -1.06,-1.87 -2.5,-3.34 -4.32,-4.43 -1.82,-1.09 -3.91,-1.63 -6.27,-1.63 -2.31,0 -4.39,0.54 -6.23,1.63 -1.84,1.09 -3.28,2.56 -4.32,4.43 -1.04,1.86 -1.56,4 -1.56,6.41 0,2.46 0.52,4.64 1.56,6.55 1.04,1.91 2.48,3.41 4.32,4.5 1.84,1.09 3.92,1.63 6.23,1.63z"/>
  <path id="_17" class="fil0" d="M931.81 328.96l0 -33.29 5.03 0 0 33.29 -5.03 0zm2.48 -40.51c-0.95,0 -1.75,-0.34 -2.41,-1.03 -0.66,-0.68 -0.99,-1.5 -0.99,-2.44 0,-0.99 0.33,-1.82 0.99,-2.48 0.66,-0.66 1.46,-0.99 2.41,-0.99 1.04,0 1.88,0.33 2.51,0.99 0.64,0.66 0.96,1.49 0.96,2.48 0,0.95 -0.32,1.76 -0.96,2.44 -0.64,0.68 -1.48,1.03 -2.51,1.03z"/>
  <path id="_18" class="fil0" d="M962.05 329.67c-3.26,0 -6.2,-0.77 -8.82,-2.3 -2.62,-1.54 -4.7,-3.63 -6.23,-6.27 -1.53,-2.64 -2.3,-5.6 -2.3,-8.85 0,-3.26 0.77,-6.2 2.3,-8.82 1.53,-2.62 3.61,-4.69 6.23,-6.2 2.62,-1.51 5.56,-2.27 8.82,-2.27 2.5,0 4.84,0.47 7.01,1.42 2.17,0.95 4.01,2.27 5.53,3.97l-3.26 3.33c-1.13,-1.28 -2.5,-2.25 -4.11,-2.94 -1.61,-0.68 -3.33,-1.03 -5.17,-1.03 -2.36,0 -4.46,0.54 -6.3,1.63 -1.84,1.09 -3.28,2.56 -4.32,4.43 -1.04,1.86 -1.56,4.02 -1.56,6.48 0,2.41 0.52,4.57 1.56,6.48 1.04,1.91 2.48,3.41 4.32,4.5 1.84,1.09 3.94,1.63 6.3,1.63 1.89,0 3.64,-0.34 5.24,-1.03 1.61,-0.68 2.97,-1.66 4.11,-2.94l3.33 3.33c-1.56,1.75 -3.44,3.09 -5.63,4.04 -2.2,0.94 -4.54,1.42 -7.05,1.42z"/>
  <path id="_19" class="fil0" d="M996.4 329.67c-3.35,0 -6.35,-0.76 -9,-2.27 -2.64,-1.51 -4.73,-3.59 -6.27,-6.23 -1.53,-2.64 -2.3,-5.62 -2.3,-8.92 0,-3.26 0.76,-6.2 2.27,-8.82 1.51,-2.62 3.57,-4.69 6.16,-6.2 2.6,-1.51 5.5,-2.27 8.71,-2.27 3.02,0 5.7,0.68 8.04,2.05 2.34,1.37 4.18,3.27 5.53,5.7 1.35,2.43 2.02,5.23 2.02,8.39 0,0.38 -0.02,0.81 -0.07,1.31 -0.05,0.5 -0.14,1.07 -0.28,1.74l-28.83 0 0 -4.25 26.14 0 -1.77 1.56c0.05,-2.46 -0.37,-4.57 -1.24,-6.34 -0.87,-1.77 -2.13,-3.14 -3.75,-4.11 -1.63,-0.97 -3.6,-1.45 -5.92,-1.45 -2.41,0 -4.51,0.52 -6.3,1.56 -1.79,1.04 -3.2,2.49 -4.21,4.36 -1.02,1.87 -1.52,4.07 -1.52,6.62 0,2.55 0.53,4.79 1.59,6.73 1.06,1.94 2.55,3.45 4.46,4.53 1.91,1.09 4.12,1.63 6.62,1.63 2.03,0 3.9,-0.37 5.59,-1.1 1.7,-0.73 3.14,-1.83 4.32,-3.29l3.19 3.26c-1.56,1.84 -3.48,3.27 -5.77,4.29 -2.29,1.01 -4.76,1.52 -7.4,1.52z"/>
  <path class="fil1" d="M350.38 153.24l0 -21.53 33.11 0c6.77,0 12.02,-1.73 15.74,-5.18 3.72,-3.45 5.59,-8.23 5.59,-14.32 0,-5.55 -1.86,-10.19 -5.59,-13.91 -3.72,-3.72 -8.97,-5.59 -15.74,-5.59l-33.11 0 0 -22.54 35.54 0c9.21,0 17.3,1.79 24.27,5.38 6.97,3.59 12.39,8.5 16.25,14.73 3.86,6.23 5.79,13.4 5.79,21.53 0,8.4 -1.93,15.67 -5.79,21.83 -3.86,6.16 -9.31,10.97 -16.35,14.42 -7.04,3.45 -15.23,5.18 -24.58,5.18l-35.14 0zm-20.31 59.71l0 -142.78 27.62 0 0 142.78 -27.62 0zm77.99 0l-47.12 -61.74 25.39 -7.92 55.24 69.66 -33.51 0z"/>
  <path id="_1_0" class="fil1" d="M452.05 212.95l0 -98.1 26.81 0 0 98.1 -26.81 0zm13.4 -113.94c-4.33,0 -7.92,-1.46 -10.76,-4.37 -2.84,-2.91 -4.27,-6.53 -4.27,-10.87 0,-4.2 1.42,-7.79 4.27,-10.76 2.84,-2.98 6.43,-4.47 10.76,-4.47 4.47,0 8.09,1.49 10.87,4.47 2.78,2.98 4.16,6.57 4.16,10.76 0,4.33 -1.39,7.95 -4.16,10.87 -2.78,2.91 -6.4,4.37 -10.87,4.37z"/>
  <path id="_2_1" class="fil1" d="M538.28 256.41c-10.43,0 -19.63,-1.86 -27.62,-5.59 -7.99,-3.72 -14.35,-8.97 -19.09,-15.74l16.86 -16.86c3.79,4.47 8.02,7.89 12.69,10.26 4.67,2.37 10.32,3.55 16.96,3.55 8.26,0 14.79,-2.1 19.6,-6.3 4.81,-4.2 7.21,-10.02 7.21,-17.47l0 -24.58 4.47 -21.53 -4.27 -21.53 0 -25.79 26.4 0 0 93.02c0,9.75 -2.27,18.25 -6.8,25.49 -4.54,7.24 -10.8,12.9 -18.79,16.96 -7.99,4.06 -17.2,6.09 -27.62,6.09zm-1.22 -46.11c-8.8,0 -16.72,-2.13 -23.76,-6.4 -7.04,-4.27 -12.56,-10.12 -16.55,-17.57 -3.99,-7.45 -5.99,-15.77 -5.99,-24.98 0,-9.21 2,-17.47 5.99,-24.78 3.99,-7.31 9.51,-13.1 16.55,-17.37 7.04,-4.27 14.96,-6.4 23.76,-6.4 7.31,0 13.78,1.42 19.4,4.27 5.62,2.84 10.05,6.74 13.3,11.68 3.25,4.94 5.01,10.73 5.28,17.37l0 30.87c-0.27,6.5 -2.06,12.29 -5.38,17.37 -3.32,5.08 -7.79,9 -13.4,11.78 -5.62,2.78 -12.02,4.16 -19.19,4.16zm5.28 -24.17c4.87,0 9.11,-1.05 12.69,-3.15 3.59,-2.1 6.4,-5.01 8.43,-8.73 2.03,-3.72 3.05,-7.95 3.05,-12.69 0,-4.87 -1.02,-9.14 -3.05,-12.8 -2.03,-3.66 -4.84,-6.53 -8.43,-8.63 -3.59,-2.1 -7.82,-3.15 -12.69,-3.15 -4.87,0 -9.14,1.05 -12.8,3.15 -3.66,2.1 -6.5,5.01 -8.53,8.73 -2.03,3.72 -3.05,7.95 -3.05,12.69 0,4.6 1.02,8.77 3.05,12.49 2.03,3.72 4.87,6.67 8.53,8.83 3.66,2.17 7.92,3.25 12.8,3.25z"/>
  <path id="_3_2" class="fil1" d="M675.69 212.95l0 -56.26c0,-5.82 -1.83,-10.56 -5.48,-14.22 -3.66,-3.66 -8.4,-5.48 -14.22,-5.48 -3.79,0 -7.18,0.81 -10.15,2.44 -2.98,1.62 -5.32,3.93 -7.01,6.91 -1.69,2.98 -2.54,6.43 -2.54,10.36l-10.36 -5.28c0,-7.72 1.63,-14.45 4.87,-20.21 3.25,-5.75 7.75,-10.26 13.51,-13.51 5.75,-3.25 12.35,-4.87 19.8,-4.87 7.45,0 14.05,1.62 19.8,4.87 5.75,3.25 10.26,7.72 13.51,13.4 3.25,5.69 4.87,12.25 4.87,19.7l0 62.15 -26.61 0zm-66.01 0l0 -146.84 26.61 0 0 146.84 -26.61 0z"/>
  <path id="_4_3" class="fil1" d="M731.86 212.95l0 -138.92 26.61 0 0 138.92 -26.61 0zm-22.95 -74.74l0 -23.36 72.51 0 0 23.36 -72.51 0z"/>
  <path id="_5_4" class="fil1" d="M806.92 156.89l0 -13.2 41.23 0c5.69,0 10.8,-1.15 15.33,-3.45 4.54,-2.3 8.12,-5.59 10.76,-9.85 2.64,-4.27 3.96,-9.38 3.96,-15.33 0,-5.96 -1.32,-11.07 -3.96,-15.33 -2.64,-4.27 -6.23,-7.58 -10.76,-9.95 -4.54,-2.37 -9.65,-3.55 -15.33,-3.55l-41.23 0 0 -13 42.25 0c8.4,0 15.91,1.73 22.54,5.18 6.63,3.45 11.88,8.29 15.74,14.52 3.86,6.23 5.79,13.61 5.79,22.14 0,8.4 -1.93,15.74 -5.79,22.04 -3.86,6.3 -9.11,11.17 -15.74,14.62 -6.64,3.45 -14.15,5.18 -22.54,5.18l-42.25 0zm-9.55 56.06l0 -139.73 14.83 0 0 139.73 -14.83 0z"/>
  <polygon id="_6_5" class="fil1" points="911.72,212.95 911.72,69.15 925.93,69.15 925.93,212.95 "/>
  <path id="_7_6" class="fil1" d="M990.51 214.98c-9.07,0 -17.2,-2.2 -24.37,-6.6 -7.18,-4.4 -12.83,-10.32 -16.96,-17.77 -4.13,-7.45 -6.19,-15.84 -6.19,-25.19 0,-9.48 2.06,-17.97 6.19,-25.49 4.13,-7.51 9.78,-13.47 16.96,-17.87 7.18,-4.4 15.23,-6.6 24.17,-6.6 7.31,0 13.85,1.46 19.6,4.37 5.75,2.91 10.43,6.97 14.01,12.19 3.59,5.21 5.79,11.27 6.6,18.18l0 29.86c-0.81,6.91 -3.01,13 -6.6,18.28 -3.59,5.28 -8.26,9.38 -14.01,12.29 -5.75,2.91 -12.22,4.37 -19.4,4.37zm2.23 -13.61c9.88,0 17.84,-3.32 23.86,-9.95 6.02,-6.64 9.04,-15.37 9.04,-26.2 0,-7.18 -1.39,-13.51 -4.16,-18.99 -2.78,-5.48 -6.64,-9.75 -11.58,-12.8 -4.94,-3.05 -10.73,-4.57 -17.37,-4.57 -6.77,0 -12.76,1.56 -17.97,4.67 -5.21,3.11 -9.34,7.41 -12.39,12.9 -3.05,5.48 -4.57,11.75 -4.57,18.79 0,7.04 1.52,13.27 4.57,18.69 3.05,5.42 7.21,9.68 12.49,12.8 5.28,3.12 11.31,4.67 18.08,4.67zm32.09 11.58l0 -25.59 2.84 -23.56 -2.84 -22.95 0 -23.36 14.22 0 0 95.46 -14.22 0z"/>
  <path id="_8_7" class="fil1" d="M1105.66 214.98c-9.34,0 -17.77,-2.2 -25.29,-6.6 -7.52,-4.4 -13.47,-10.39 -17.87,-17.98 -4.4,-7.58 -6.6,-16.05 -6.6,-25.39 0,-9.34 2.2,-17.77 6.6,-25.29 4.4,-7.51 10.36,-13.44 17.87,-17.77 7.52,-4.33 15.94,-6.5 25.29,-6.5 7.18,0 13.88,1.35 20.11,4.06 6.23,2.71 11.51,6.5 15.84,11.37l-9.34 9.54c-3.25,-3.66 -7.18,-6.47 -11.78,-8.43 -4.6,-1.96 -9.54,-2.94 -14.83,-2.94 -6.77,0 -12.8,1.56 -18.08,4.67 -5.28,3.12 -9.41,7.35 -12.39,12.69 -2.98,5.35 -4.47,11.54 -4.47,18.58 0,6.91 1.49,13.1 4.47,18.58 2.98,5.48 7.11,9.78 12.39,12.9 5.28,3.12 11.31,4.67 18.08,4.67 5.42,0 10.43,-0.98 15.03,-2.94 4.6,-1.96 8.53,-4.77 11.78,-8.43l9.55 9.55c-4.47,5.01 -9.85,8.87 -16.15,11.58 -6.3,2.71 -13.03,4.06 -20.21,4.06z"/>
  <path id="_9_8" class="fil1" d="M1198.47 214.98c-9.61,0 -18.21,-2.17 -25.79,-6.5 -7.58,-4.33 -13.57,-10.29 -17.97,-17.87 -4.4,-7.58 -6.6,-16.11 -6.6,-25.59 0,-9.34 2.17,-17.77 6.5,-25.29 4.33,-7.51 10.22,-13.44 17.67,-17.77 7.45,-4.33 15.77,-6.5 24.98,-6.5 8.67,0 16.35,1.96 23.05,5.89 6.7,3.93 11.98,9.38 15.84,16.35 3.86,6.97 5.79,15 5.79,24.07 0,1.08 -0.07,2.34 -0.2,3.76 -0.14,1.42 -0.41,3.08 -0.81,4.98l-82.66 0 0 -12.19 74.94 0 -5.08 4.47c0.14,-7.04 -1.05,-13.1 -3.55,-18.18 -2.51,-5.08 -6.09,-9 -10.77,-11.78 -4.67,-2.78 -10.32,-4.16 -16.96,-4.16 -6.91,0 -12.93,1.49 -18.08,4.47 -5.15,2.98 -9.17,7.14 -12.08,12.49 -2.91,5.35 -4.37,11.68 -4.37,18.99 0,7.31 1.52,13.74 4.57,19.29 3.05,5.55 7.31,9.88 12.8,13 5.48,3.11 11.81,4.67 18.99,4.67 5.82,0 11.17,-1.05 16.05,-3.15 4.87,-2.1 9,-5.25 12.39,-9.44l9.14 9.34c-4.47,5.28 -9.99,9.38 -16.55,12.29 -6.57,2.91 -13.64,4.37 -21.22,4.37z"/>
  <path class="fil2" d="M20.16 83.13c-6.91,15.47 -10.86,32.76 -11.09,51.28 -0.01,6.35 0.47,12.77 1.4,19.23 0.93,6.47 2.29,12.97 4.04,19.49 1.74,6.52 3.87,13.04 6.3,19.55 2.44,6.5 5.2,12.98 8.2,19.4 3.01,6.42 6.28,12.79 9.73,19.06 3.46,6.28 7.11,12.46 10.9,18.52 3.79,6.06 7.7,12 11.69,17.78 3.99,5.78 8.05,11.41 12.12,16.84 4.07,5.44 8.15,10.68 12.18,15.71 4.03,5.02 8.01,9.83 11.87,14.37 3.86,4.55 7.62,8.84 11.2,12.84 3.58,4 6.98,7.72 10.15,11.11 3.17,3.39 6.1,6.46 8.74,9.18 2.64,2.71 4.98,5.08 6.96,7.05 1.98,1.97 3.6,3.56 4.81,4.72 1.2,1.16 1.99,1.9 2.3,2.19 0.12,0.12 0.25,0.23 0.38,0.32 0.13,0.1 0.27,0.19 0.41,0.28 0.14,0.08 0.29,0.16 0.44,0.23 0.15,0.07 0.31,0.13 0.46,0.18 0.16,0.05 0.32,0.09 0.48,0.13 0.16,0.04 0.33,0.07 0.5,0.08 0.17,0.02 0.34,0.03 0.5,0.04 0.17,0 0.34,0 0.51,-0.01 0.17,-0.01 0.34,-0.03 0.51,-0.05 0.17,-0.02 0.34,-0.06 0.51,-0.1 0.17,-0.04 0.34,-0.09 0.5,-0.14 0.17,-0.05 0.33,-0.12 0.49,-0.18 0.16,-0.07 0.32,-0.14 0.47,-0.23 0.16,-0.08 0.31,-0.17 0.45,-0.27 0.15,-0.1 0.29,-0.2 0.43,-0.31 0.14,-0.11 0.27,-0.23 0.4,-0.35 0.34,-0.32 1.12,-1.1 2.27,-2.3 1.15,-1.2 2.69,-2.82 4.54,-4.83 1.85,-2.01 4.03,-4.4 6.47,-7.14 2.44,-2.74 5.15,-5.84 8.06,-9.25 2.91,-3.41 6.04,-7.13 9.32,-11.13 3.28,-4 6.72,-8.28 10.25,-12.8 3.53,-4.52 7.16,-9.29 10.83,-14.26 3.67,-4.97 7.38,-10.15 11.08,-15.5 10.86,-15.7 21.37,-32.39 30.3,-49.76 42.55,-82.81 34.03,-186.88 -64.51,-218.28 -58.59,-18.68 -128.99,3.25 -157.59,67.29z"/>
  <path class="fil3" d="M132.88 0.14c-71.64,-3.22 -132.08,51.21 -132.88,125.2 -0.06,25.39 7.9,51.98 19.94,77.67 12.04,25.69 28.17,50.46 44.45,72.21 16.28,21.75 32.73,40.46 45.4,54.03 12.68,13.57 21.59,21.99 22.8,23.13 0.26,0.21 0.52,0.39 0.8,0.55 0.28,0.16 0.57,0.29 0.86,0.4 0.3,0.1 0.61,0.18 0.92,0.23 0.31,0.05 0.64,0.07 0.97,0.05 0.93,-45.22 1.62,-79.14 2.04,-107.28 0.21,-14.06 0.34,-26.68 0.4,-38.54 -17.38,-1.42 -32.89,-8.38 -44.17,-18.82 -11.63,-10.77 -18.75,-25.23 -18.75,-41.14 0,-25.47 18.25,-47.25 44.04,-56.05 4.23,-1.86 8.69,-3.16 13.27,-3.88 1.11,-0.17 2.22,-0.31 3.34,-0.42 -0.87,-23.9 -2.01,-52.01 -3.44,-87.35z"/>
  <path class="fil4" d="M139.05 72.94c37.37,0 67.66,30.29 67.66,67.66 0,59.01 -69.69,89.88 -113.47,47.25 -38.77,-37.75 -6.81,-102.48 43.08,-100.36 -0.17,-4.66 -0.35,-9.48 -0.54,-14.48 1.08,-0.05 2.17,-0.08 3.27,-0.08z"/>
  <path class="fil4" d="M197.59 225.29c0.53,-0.73 1.18,-1.31 1.89,-1.73 0.71,-0.42 1.49,-0.69 2.28,-0.8 0.8,-0.11 1.61,-0.05 2.4,0.18 0.79,0.23 1.55,0.63 2.23,1.2 0.68,0.55 1.22,1.24 1.61,2 0.4,0.76 0.65,1.6 0.75,2.46 0.1,0.86 0.05,1.75 -0.16,2.61 -0.21,0.86 -0.57,1.68 -1.1,2.43 -1.69,2.37 -3.51,4.62 -5.44,6.76 -1.93,2.13 -3.97,4.15 -6.1,6.03 -2.14,1.88 -4.38,3.63 -6.7,5.25 -2.33,1.61 -4.74,3.09 -7.23,4.43 -2.53,1.33 -5.13,2.52 -7.8,3.56 -2.66,1.03 -5.4,1.92 -8.18,2.64 -2.78,0.72 -5.61,1.28 -8.48,1.67 -2.87,0.39 -5.77,0.61 -8.7,0.65 -2.95,0.04 -5.89,-0.09 -8.8,-0.39 -2.91,-0.3 -5.8,-0.78 -8.64,-1.42 -2.84,-0.64 -5.65,-1.45 -8.4,-2.42 -2.75,-0.97 -5.45,-2.1 -8.07,-3.39 -0.05,-0.02 -0.09,-0.04 -0.12,-0.05 -0.03,-0.01 -0.06,-0.02 -0.08,-0.03 -0.02,-0.01 -0.05,-0.02 -0.08,-0.03 -0.03,-0.01 -0.07,-0.03 -0.11,-0.05 -10.44,-5.24 -19.83,-12.76 -27.27,-22.36 -2.41,-3.04 -1.87,-7.52 1.19,-9.89 0.76,-0.6 1.61,-1.02 2.5,-1.26 0.88,-0.24 1.8,-0.3 2.69,-0.2 0.89,0.11 1.77,0.38 2.57,0.82 0.8,0.44 1.52,1.03 2.12,1.78 1.53,1.97 3.17,3.84 4.88,5.59 1.72,1.76 3.52,3.41 5.4,4.95 1.88,1.54 3.84,2.96 5.86,4.27 2.02,1.31 4.11,2.5 6.25,3.57 0.04,0.03 0.07,0.05 0.1,0.07 0.03,0.02 0.05,0.03 0.07,0.04 0.02,0.01 0.04,0.02 0.07,0.03 0.03,0.01 0.06,0.02 0.11,0.03 2.16,1.07 4.37,2.01 6.63,2.83 2.26,0.81 4.56,1.5 6.9,2.04 2.34,0.54 4.71,0.95 7.11,1.22 2.4,0.27 4.81,0.4 7.25,0.38 2.44,-0.03 4.86,-0.2 7.24,-0.52 2.38,-0.31 4.73,-0.76 7.03,-1.35 2.3,-0.58 4.56,-1.3 6.76,-2.13 2.2,-0.84 4.34,-1.8 6.42,-2.88 2.06,-1.09 4.06,-2.31 5.99,-3.64 1.93,-1.33 3.79,-2.79 5.56,-4.35 1.77,-1.56 3.47,-3.23 5.08,-5 1.6,-1.77 3.12,-3.64 4.53,-5.6z"/>
 </g>
</svg>
