<?xml version="1.0" encoding="UTF-8"?>
<!DOCTYPE svg PUBLIC "-//W3C//DTD SVG 1.1//EN" "http://www.w3.org/Graphics/SVG/1.1/DTD/svg11.dtd">
<!-- Creator: CorelDRAW -->
<svg xmlns="http://www.w3.org/2000/svg" xml:space="preserve" width="3.4389mm" height="6.3501mm" version="1.1" style="shape-rendering:geometricPrecision; text-rendering:geometricPrecision; image-rendering:optimizeQuality; fill-rule:evenodd; clip-rule:evenodd"
viewBox="0 0 1.81 3.34"
 xmlns:xlink="http://www.w3.org/1999/xlink"
 xmlns:xodm="http://www.corel.com/coreldraw/odm/2003">
 <defs>
  <style type="text/css">
   <![CDATA[
    .fil0 {fill:#36293D;fill-rule:nonzero}
   ]]>
  </style>
 </defs>
 <g id="Layer_x0020_1">
  <metadata id="CorelCorpID_0Corel-Layer"/>
  <path class="fil0" d="M-0 1.67c0,-0.04 0.01,-0.07 0.04,-0.1l1.53 -1.53c0.03,-0.03 0.06,-0.04 0.1,-0.04 0.04,0 0.07,0.01 0.1,0.04 0.03,0.03 0.04,0.06 0.04,0.1 0,0.04 -0.01,0.07 -0.04,0.1l-1.43 1.44 1.43 1.44c0.03,0.03 0.04,0.06 0.04,0.1 0,0.04 -0.01,0.07 -0.04,0.1 -0.03,0.03 -0.06,0.04 -0.1,0.04 -0.04,0 -0.07,-0.01 -0.1,-0.04l-1.53 -1.53c-0.03,-0.03 -0.04,-0.06 -0.04,-0.1z"/>
 </g>
</svg>
