<?xml version="1.0" encoding="UTF-8"?>
<!DOCTYPE svg PUBLIC "-//W3C//DTD SVG 1.1//EN" "http://www.w3.org/Graphics/SVG/1.1/DTD/svg11.dtd">
<!-- Creator: CorelDRAW -->
<svg xmlns="http://www.w3.org/2000/svg" xml:space="preserve" width="3.4389mm" height="6.3501mm" version="1.1" style="shape-rendering:geometricPrecision; text-rendering:geometricPrecision; image-rendering:optimizeQuality; fill-rule:evenodd; clip-rule:evenodd"
viewBox="0 0 6.12 11.31"
 xmlns:xlink="http://www.w3.org/1999/xlink"
 xmlns:xodm="http://www.corel.com/coreldraw/odm/2003">
 <defs>
  <style type="text/css">
   <![CDATA[
    .fil0 {fill:#36293D;fill-rule:nonzero}
   ]]>
  </style>
 </defs>
 <g id="Layer_x0020_1">
  <metadata id="CorelCorpID_0Corel-Layer"/>
  <path class="fil0" d="M6.12 5.65c0,-0.13 -0.05,-0.24 -0.14,-0.33l-5.18 -5.18c-0.09,-0.09 -0.2,-0.14 -0.33,-0.14 -0.13,0 -0.24,0.05 -0.33,0.14 -0.09,0.09 -0.14,0.2 -0.14,0.33 0,0.13 0.05,0.24 0.14,0.33l4.84 4.85 -4.84 4.85c-0.09,0.09 -0.14,0.2 -0.14,0.33 0,0.13 0.05,0.24 0.14,0.33 0.09,0.09 0.2,0.14 0.33,0.14 0.13,0 0.24,-0.05 0.33,-0.14l5.18 -5.18c0.09,-0.09 0.14,-0.2 0.14,-0.33z"/>
 </g>
</svg>
