<?xml version="1.0" encoding="UTF-8"?>
<!DOCTYPE svg PUBLIC "-//W3C//DTD SVG 1.1//EN" "http://www.w3.org/Graphics/SVG/1.1/DTD/svg11.dtd">
<!-- Creator: CorelDRAW -->
<svg xmlns="http://www.w3.org/2000/svg" xml:space="preserve" width="5.7924mm" height="5.7924mm" version="1.1" style="shape-rendering:geometricPrecision; text-rendering:geometricPrecision; image-rendering:optimizeQuality; fill-rule:evenodd; clip-rule:evenodd"
viewBox="0 0 6.21 6.21"
 xmlns:xlink="http://www.w3.org/1999/xlink"
 xmlns:xodm="http://www.corel.com/coreldraw/odm/2003">
 <defs>
  <style type="text/css">
   <![CDATA[
    .fil0 {fill:#36293D;fill-rule:nonzero}
   ]]>
  </style>
 </defs>
 <g id="Layer_x0020_1">
  <metadata id="CorelCorpID_0Corel-Layer"/>
  <path class="fil0" d="M6.21 2.44c0,0.22 -0.03,0.44 -0.09,0.65 -0.06,0.21 -0.14,0.4 -0.25,0.58 -0.11,0.18 -0.23,0.35 -0.38,0.49 -0.15,0.15 -0.31,0.28 -0.49,0.38 -0.18,0.11 -0.38,0.19 -0.58,0.25 -0.21,0.06 -0.42,0.09 -0.65,0.09 -0.29,0 -0.57,-0.05 -0.83,-0.15 -0.27,-0.1 -0.51,-0.24 -0.73,-0.42l-1.83 1.83c-0.04,0.04 -0.1,0.07 -0.15,0.07 -0.06,0 -0.11,-0.02 -0.16,-0.07 -0.04,-0.04 -0.07,-0.1 -0.07,-0.16 0,-0.06 0.02,-0.11 0.07,-0.15l1.83 -1.83c-0.18,-0.22 -0.32,-0.46 -0.42,-0.73 -0.1,-0.27 -0.15,-0.55 -0.15,-0.83 0,-0.22 0.03,-0.44 0.09,-0.65 0.06,-0.21 0.14,-0.4 0.25,-0.58 0.11,-0.18 0.23,-0.34 0.38,-0.49 0.15,-0.15 0.31,-0.27 0.49,-0.38 0.18,-0.11 0.37,-0.19 0.58,-0.25 0.21,-0.06 0.42,-0.09 0.65,-0.09 0.22,0 0.44,0.03 0.65,0.09 0.21,0.06 0.4,0.14 0.58,0.25 0.18,0.11 0.35,0.23 0.49,0.38 0.15,0.15 0.27,0.31 0.38,0.49 0.11,0.18 0.19,0.38 0.25,0.58 0.06,0.21 0.09,0.42 0.09,0.65zm-0.44 0c0,-0.27 -0.05,-0.53 -0.16,-0.78 -0.11,-0.24 -0.25,-0.45 -0.43,-0.63 -0.18,-0.18 -0.39,-0.32 -0.63,-0.43 -0.24,-0.11 -0.5,-0.16 -0.78,-0.16 -0.28,0 -0.53,0.05 -0.78,0.16 -0.24,0.11 -0.45,0.25 -0.63,0.43 -0.18,0.18 -0.32,0.39 -0.43,0.63 -0.11,0.24 -0.16,0.5 -0.16,0.78 0,0.28 0.05,0.54 0.16,0.78 0.1,0.24 0.25,0.45 0.43,0.63 0.18,0.18 0.39,0.32 0.63,0.43 0.24,0.1 0.5,0.16 0.78,0.16 0.28,0 0.54,-0.05 0.78,-0.16 0.24,-0.1 0.45,-0.25 0.63,-0.43 0.18,-0.18 0.32,-0.39 0.43,-0.63 0.1,-0.24 0.16,-0.5 0.16,-0.78z"/>
 </g>
</svg>
