<?xml version="1.0" encoding="UTF-8"?>
<!DOCTYPE svg PUBLIC "-//W3C//DTD SVG 1.1//EN" "http://www.w3.org/Graphics/SVG/1.1/DTD/svg11.dtd">
<!-- Creator: CorelDRAW -->
<svg xmlns="http://www.w3.org/2000/svg" xml:space="preserve" width="12.6561mm" height="12.3316mm" version="1.1" style="shape-rendering:geometricPrecision; text-rendering:geometricPrecision; image-rendering:optimizeQuality; fill-rule:evenodd; clip-rule:evenodd"
viewBox="0 0 28.53 27.8"
 xmlns:xlink="http://www.w3.org/1999/xlink"
 xmlns:xodm="http://www.corel.com/coreldraw/odm/2003">
 <defs>
  <style type="text/css">
   <![CDATA[
    .fil0 {fill:#9900CC;fill-rule:nonzero}
   ]]>
  </style>
 </defs>
 <g id="Layer_x0020_1">
  <metadata id="CorelCorpID_0Corel-Layer"/>
  <path class="fil0" d="M27.44 27.79c-12.46,-1.04 -21.72,-11.99 -20.68,-24.46l-5.15 4.36c-0.43,0.32 -1.03,0.26 -1.38,-0.15 -0.35,-0.41 -0.31,-1.02 0.08,-1.38l7 -5.93c0.2,-0.17 0.47,-0.26 0.73,-0.23 0.27,0.02 0.51,0.15 0.68,0.35l5.93 7c0.36,0.42 0.31,1.06 -0.12,1.42 -0.42,0.36 -1.06,0.31 -1.42,-0.12l-4.36 -5.15c-0.95,11.36 7.48,21.34 18.84,22.29 0.55,0.05 0.96,0.53 0.92,1.08 -0.05,0.55 -0.53,0.96 -1.08,0.92z"/>
 </g>
</svg>
