<?xml version="1.0" encoding="UTF-8"?>
<!DOCTYPE svg PUBLIC "-//W3C//DTD SVG 1.1//EN" "http://www.w3.org/Graphics/SVG/1.1/DTD/svg11.dtd">
<!-- Creator: CorelDRAW -->
<svg xmlns="http://www.w3.org/2000/svg" xml:space="preserve" width="65.0836mm" height="13.8696mm" version="1.1" style="shape-rendering:geometricPrecision; text-rendering:geometricPrecision; image-rendering:optimizeQuality; fill-rule:evenodd; clip-rule:evenodd"
viewBox="0 0 637.34 135.82"
 xmlns:xlink="http://www.w3.org/1999/xlink"
 xmlns:xodm="http://www.corel.com/coreldraw/odm/2003">
 <defs>
  <style type="text/css">
   <![CDATA[
    .fil4 {fill:#FEFEFE}
    .fil0 {fill:#36293D;fill-rule:nonzero}
    .fil1 {fill:#9900CC;fill-rule:nonzero}
    .fil3 {fill:#FEFEFE;fill-rule:nonzero}
    .fil2 {fill:url(#id0);fill-rule:nonzero}
   ]]>
  </style>
  <linearGradient id="id0" gradientUnits="userSpaceOnUse" x1="29.89" y1="79.07" x2="48.32" y2="6.08">
   <stop offset="0" style="stop-opacity:1; stop-color:#9900CC"/>
   <stop offset="1" style="stop-opacity:1; stop-color:#4E008E"/>
  </linearGradient>
 </defs>
 <g id="Layer_x0020_1">
  <metadata id="CorelCorpID_0Corel-Layer"/>
  <path class="fil0" d="M125.35 76.57l0 -12.36 19.01 0c3.89,0 6.9,-0.99 9.04,-2.98 2.14,-1.98 3.21,-4.72 3.21,-8.22 0,-3.19 -1.07,-5.85 -3.21,-7.99 -2.14,-2.14 -5.15,-3.21 -9.04,-3.21l-19.01 0 0 -12.95 20.41 0c5.29,0 9.93,1.03 13.94,3.09 4,2.06 7.11,4.88 9.33,8.46 2.22,3.58 3.32,7.7 3.32,12.36 0,4.82 -1.11,9 -3.32,12.54 -2.22,3.54 -5.35,6.3 -9.39,8.28 -4.04,1.98 -8.75,2.97 -14.11,2.97l-20.18 0zm-11.66 34.29l0 -82 15.86 0 0 82 -15.86 0zm44.79 0l-27.06 -35.46 14.58 -4.55 31.73 40.01 -19.25 0z"/>
  <path id="_1" class="fil0" d="M183.73 110.86l0 -56.34 15.4 0 0 56.34 -15.4 0zm7.7 -65.43c-2.49,0 -4.55,-0.84 -6.18,-2.51 -1.63,-1.67 -2.45,-3.75 -2.45,-6.24 0,-2.41 0.82,-4.47 2.45,-6.18 1.63,-1.71 3.69,-2.57 6.18,-2.57 2.57,0 4.65,0.85 6.24,2.57 1.59,1.71 2.39,3.77 2.39,6.18 0,2.49 -0.8,4.57 -2.39,6.24 -1.59,1.67 -3.67,2.51 -6.24,2.51z"/>
  <path id="_2" class="fil0" d="M233.25 135.82c-5.99,0 -11.28,-1.07 -15.86,-3.21 -4.59,-2.14 -8.24,-5.15 -10.96,-9.04l9.68 -9.68c2.18,2.57 4.61,4.53 7.29,5.89 2.68,1.36 5.93,2.04 9.74,2.04 4.74,0 8.5,-1.21 11.26,-3.62 2.76,-2.41 4.14,-5.75 4.14,-10.03l0 -14.11 2.57 -12.36 -2.45 -12.36 0 -14.81 15.16 0 0 53.42c0,5.6 -1.3,10.48 -3.91,14.64 -2.6,4.16 -6.2,7.41 -10.79,9.74 -4.59,2.33 -9.87,3.5 -15.86,3.5zm-0.7 -26.48c-5.05,0 -9.6,-1.23 -13.65,-3.67 -4.04,-2.45 -7.21,-5.81 -9.51,-10.09 -2.29,-4.28 -3.44,-9.06 -3.44,-14.35 0,-5.29 1.15,-10.03 3.44,-14.23 2.29,-4.2 5.46,-7.52 9.51,-9.97 4.04,-2.45 8.59,-3.67 13.65,-3.67 4.2,0 7.91,0.82 11.14,2.45 3.23,1.63 5.77,3.87 7.64,6.71 1.87,2.84 2.88,6.16 3.03,9.97l0 17.73c-0.16,3.73 -1.19,7.06 -3.09,9.97 -1.9,2.92 -4.47,5.17 -7.7,6.76 -3.23,1.59 -6.9,2.39 -11.02,2.39zm3.03 -13.88c2.8,0 5.23,-0.6 7.29,-1.81 2.06,-1.21 3.67,-2.88 4.84,-5.02 1.17,-2.14 1.75,-4.57 1.75,-7.29 0,-2.8 -0.58,-5.25 -1.75,-7.35 -1.17,-2.1 -2.78,-3.75 -4.84,-4.96 -2.06,-1.21 -4.49,-1.81 -7.29,-1.81 -2.8,0 -5.25,0.6 -7.35,1.81 -2.1,1.2 -3.73,2.88 -4.9,5.01 -1.17,2.14 -1.75,4.57 -1.75,7.29 0,2.64 0.58,5.04 1.75,7.17 1.17,2.14 2.8,3.83 4.9,5.07 2.1,1.24 4.55,1.87 7.35,1.87z"/>
  <path id="_3" class="fil0" d="M312.16 110.86l0 -32.31c0,-3.34 -1.05,-6.07 -3.15,-8.17 -2.1,-2.1 -4.82,-3.15 -8.17,-3.15 -2.18,0 -4.12,0.47 -5.83,1.4 -1.71,0.93 -3.05,2.25 -4.02,3.97 -0.97,1.71 -1.46,3.69 -1.46,5.95l-5.95 -3.03c0,-4.43 0.93,-8.3 2.8,-11.61 1.87,-3.31 4.45,-5.89 7.76,-7.76 3.3,-1.87 7.09,-2.8 11.37,-2.8 4.28,0 8.07,0.93 11.37,2.8 3.31,1.87 5.89,4.43 7.76,7.7 1.87,3.27 2.8,7.04 2.8,11.31l0 35.69 -15.28 0zm-37.91 0l0 -84.33 15.28 0 0 84.33 -15.28 0z"/>
  <path id="_4" class="fil0" d="M344.42 110.86l0 -79.78 15.28 0 0 79.78 -15.28 0zm-13.18 -42.92l0 -13.41 41.64 0 0 13.41 -41.64 0z"/>
  <path id="_5" class="fil0" d="M387.53 78.67l0 -7.58 23.68 0c3.27,0 6.2,-0.66 8.81,-1.98 2.6,-1.32 4.67,-3.21 6.18,-5.66 1.52,-2.45 2.27,-5.38 2.27,-8.81 0,-3.42 -0.76,-6.36 -2.27,-8.81 -1.52,-2.45 -3.58,-4.35 -6.18,-5.71 -2.6,-1.36 -5.54,-2.04 -8.81,-2.04l-23.68 0 0 -7.46 24.26 0c4.82,0 9.14,0.99 12.95,2.97 3.81,1.98 6.82,4.76 9.04,8.34 2.22,3.58 3.32,7.81 3.32,12.71 0,4.82 -1.11,9.04 -3.32,12.66 -2.22,3.62 -5.23,6.42 -9.04,8.4 -3.81,1.98 -8.13,2.97 -12.95,2.97l-24.26 0zm-5.48 32.19l0 -80.25 8.51 0 0 80.25 -8.51 0z"/>
  <polygon id="_6" class="fil0" points="447.71,110.86 447.71,28.28 455.87,28.28 455.87,110.86 "/>
  <path id="_7" class="fil0" d="M492.95 112.03c-5.21,0 -9.87,-1.26 -14,-3.79 -4.12,-2.53 -7.37,-5.93 -9.74,-10.21 -2.37,-4.28 -3.56,-9.1 -3.56,-14.46 0,-5.44 1.19,-10.32 3.56,-14.64 2.37,-4.32 5.62,-7.74 9.74,-10.26 4.12,-2.53 8.75,-3.79 13.88,-3.79 4.2,0 7.95,0.84 11.26,2.51 3.3,1.67 5.99,4 8.05,7 2.06,2.99 3.32,6.47 3.79,10.44l0 17.15c-0.47,3.97 -1.73,7.46 -3.79,10.5 -2.06,3.03 -4.74,5.38 -8.05,7.06 -3.31,1.67 -7.02,2.51 -11.14,2.51zm1.28 -7.81c5.68,0 10.25,-1.9 13.7,-5.71 3.46,-3.81 5.19,-8.83 5.19,-15.05 0,-4.12 -0.8,-7.76 -2.39,-10.91 -1.59,-3.15 -3.81,-5.6 -6.65,-7.35 -2.84,-1.75 -6.16,-2.62 -9.97,-2.62 -3.89,0 -7.33,0.89 -10.32,2.68 -2.99,1.79 -5.37,4.26 -7.11,7.41 -1.75,3.15 -2.62,6.75 -2.62,10.79 0,4.04 0.87,7.62 2.62,10.73 1.75,3.11 4.14,5.56 7.17,7.35 3.03,1.79 6.49,2.68 10.38,2.68zm18.43 6.65l0 -14.7 1.63 -13.53 -1.63 -13.18 0 -13.41 8.16 0 0 54.82 -8.16 0z"/>
  <path id="_8" class="fil0" d="M559.08 112.03c-5.37,0 -10.21,-1.26 -14.52,-3.79 -4.32,-2.53 -7.74,-5.97 -10.26,-10.32 -2.53,-4.35 -3.79,-9.21 -3.79,-14.58 0,-5.37 1.26,-10.21 3.79,-14.52 2.53,-4.32 5.95,-7.72 10.26,-10.2 4.31,-2.49 9.16,-3.73 14.52,-3.73 4.12,0 7.97,0.78 11.55,2.33 3.58,1.56 6.61,3.73 9.1,6.53l-5.37 5.48c-1.87,-2.1 -4.12,-3.71 -6.76,-4.84 -2.64,-1.13 -5.48,-1.69 -8.51,-1.69 -3.89,0 -7.35,0.89 -10.38,2.68 -3.03,1.79 -5.4,4.22 -7.12,7.29 -1.71,3.07 -2.57,6.63 -2.57,10.67 0,3.97 0.85,7.52 2.57,10.67 1.71,3.15 4.08,5.62 7.12,7.41 3.03,1.79 6.49,2.68 10.38,2.68 3.11,0 5.99,-0.56 8.63,-1.69 2.64,-1.13 4.9,-2.74 6.76,-4.84l5.48 5.48c-2.57,2.88 -5.66,5.09 -9.27,6.65 -3.62,1.56 -7.48,2.33 -11.61,2.33z"/>
  <path id="_9" class="fil0" d="M612.38 112.03c-5.52,0 -10.46,-1.24 -14.81,-3.73 -4.35,-2.49 -7.79,-5.91 -10.32,-10.26 -2.53,-4.35 -3.79,-9.25 -3.79,-14.7 0,-5.37 1.24,-10.21 3.73,-14.52 2.49,-4.32 5.87,-7.72 10.15,-10.2 4.28,-2.49 9.06,-3.73 14.35,-3.73 4.98,0 9.39,1.13 13.24,3.38 3.85,2.26 6.88,5.38 9.1,9.39 2.22,4.01 3.32,8.61 3.32,13.82 0,0.62 -0.04,1.34 -0.12,2.16 -0.08,0.82 -0.23,1.77 -0.47,2.86l-47.47 0 0 -7 43.04 0 -2.92 2.57c0.08,-4.04 -0.6,-7.52 -2.04,-10.44 -1.44,-2.92 -3.5,-5.17 -6.18,-6.76 -2.68,-1.59 -5.93,-2.39 -9.74,-2.39 -3.97,0 -7.43,0.85 -10.38,2.57 -2.95,1.71 -5.27,4.1 -6.94,7.17 -1.67,3.07 -2.51,6.71 -2.51,10.91 0,4.2 0.87,7.89 2.62,11.08 1.75,3.19 4.2,5.68 7.35,7.46 3.15,1.79 6.78,2.68 10.91,2.68 3.34,0 6.41,-0.6 9.21,-1.81 2.8,-1.21 5.17,-3.01 7.11,-5.42l5.25 5.37c-2.57,3.03 -5.73,5.38 -9.51,7.06 -3.77,1.67 -7.83,2.51 -12.19,2.51z"/>
  <path class="fil1" d="M50.93 0.07c-27.49,-1.29 -50.57,19.54 -50.92,47.88 -0.02,9.71 3.02,19.89 7.63,29.71 4.61,9.83 10.78,19.31 17,27.63 6.23,8.32 12.52,15.48 17.37,20.67 4.85,5.19 8.26,8.41 8.73,8.85 0.19,0.18 0.41,0.31 0.65,0.39 0.24,0.08 0.5,0.11 0.76,0.09 0.26,-0.01 0.52,-0.08 0.77,-0.18 0.25,-0.1 0.47,-0.25 0.67,-0.44 0.52,-0.49 3.7,-3.78 8.17,-9 4.46,-5.22 10.21,-12.35 15.87,-20.54 5.66,-8.18 11.24,-17.41 15.35,-26.8 16.07,-36.65 -1.38,-74.75 -42.05,-78.26z"/>
  <path class="fil2" d="M50.83 0.05c-27.41,-1.23 -50.53,19.59 -50.83,47.9 -0.02,9.71 3.02,19.89 7.63,29.72 4.61,9.83 10.78,19.31 17,27.63 6.23,8.32 12.52,15.48 17.37,20.67 4.85,5.19 8.26,8.41 8.72,8.85 0.1,0.08 0.2,0.15 0.31,0.21 0.11,0.06 0.22,0.11 0.33,0.15 0.11,0.04 0.23,0.07 0.35,0.09 0.12,0.02 0.24,0.02 0.37,0.02 0.36,-17.3 0.62,-30.28 0.78,-41.04 0.16,-10.76 0.21,-19.31 0.13,-27.77 -0.08,-8.45 -0.28,-16.81 -0.64,-27.17 -0.35,-10.37 -0.86,-22.75 -1.52,-39.25z"/>
  <path class="fil3" d="M53.61 69.92c-2.24,-0.01 -4.43,-0.37 -6.51,-1.03 -2.08,-0.67 -4.06,-1.64 -5.87,-2.88 -1.81,-1.24 -3.45,-2.74 -4.87,-4.47 -1.41,-1.73 -2.59,-3.68 -3.48,-5.81 -0.9,-2.12 -1.46,-4.3 -1.7,-6.49 -0.24,-2.18 -0.15,-4.36 0.24,-6.46 0.39,-2.1 1.09,-4.13 2.09,-6.01 1,-1.88 2.28,-3.62 3.85,-5.14 1.52,-1.48 3.24,-2.67 5.08,-3.58 1.84,-0.91 3.81,-1.52 5.84,-1.84 2.03,-0.32 4.12,-0.34 6.2,-0.06 2.08,0.28 4.15,0.87 6.15,1.77 1.97,0.93 3.78,2.12 5.4,3.52 1.61,1.4 3.03,3.02 4.22,4.78 1.18,1.77 2.13,3.69 2.81,5.71 0.68,2.02 1.08,4.14 1.18,6.3 0.09,3 -0.42,5.86 -1.41,8.46 -0.99,2.6 -2.47,4.94 -4.32,6.91 -1.86,1.97 -4.1,3.56 -6.61,4.65 -2.52,1.09 -5.31,1.69 -8.28,1.67z"/>
  <path class="fil4" d="M72.12 82.72c0.2,-0.28 0.45,-0.5 0.72,-0.66 0.27,-0.16 0.57,-0.27 0.87,-0.31 0.3,-0.04 0.62,-0.02 0.92,0.07 0.3,0.09 0.59,0.24 0.85,0.46 0.26,0.21 0.47,0.47 0.62,0.76 0.15,0.29 0.25,0.61 0.28,0.94 0.04,0.33 0.02,0.67 -0.06,1 -0.08,0.33 -0.22,0.65 -0.42,0.93 -0.65,0.91 -1.34,1.77 -2.08,2.58 -0.74,0.82 -1.52,1.59 -2.34,2.31 -0.82,0.72 -1.67,1.39 -2.56,2.01 -0.89,0.62 -1.81,1.18 -2.77,1.69 -0.97,0.51 -1.96,0.96 -2.98,1.36 -1.02,0.4 -2.06,0.73 -3.13,1.01 -1.06,0.28 -2.15,0.49 -3.24,0.64 -1.1,0.15 -2.21,0.23 -3.33,0.25 -1.13,0.02 -2.25,-0.03 -3.37,-0.15 -1.11,-0.12 -2.22,-0.3 -3.31,-0.54 -1.09,-0.24 -2.16,-0.55 -3.21,-0.92 -1.05,-0.37 -2.08,-0.8 -3.09,-1.29 -0.02,-0.01 -0.03,-0.01 -0.05,-0.02 -0.01,-0 -0.02,-0.01 -0.03,-0.01 -0.01,-0 -0.02,-0.01 -0.03,-0.01 -0.01,-0 -0.03,-0.01 -0.04,-0.02 -3.99,-2 -7.59,-4.88 -10.43,-8.55 -0.92,-1.16 -0.72,-2.88 0.45,-3.78 0.29,-0.23 0.62,-0.39 0.95,-0.48 0.34,-0.09 0.69,-0.12 1.03,-0.08 0.34,0.04 0.68,0.15 0.98,0.31 0.31,0.17 0.58,0.39 0.81,0.68 0.59,0.75 1.21,1.47 1.87,2.14 0.66,0.67 1.35,1.3 2.07,1.89 0.72,0.59 1.47,1.13 2.24,1.63 0.77,0.5 1.57,0.96 2.39,1.36 0.02,0.01 0.03,0.02 0.04,0.03 0.01,0.01 0.02,0.01 0.03,0.02 0.01,0 0.02,0.01 0.03,0.01 0.01,0 0.02,0.01 0.04,0.01 0.83,0.41 1.67,0.77 2.54,1.08 0.86,0.31 1.75,0.57 2.64,0.78 0.89,0.21 1.8,0.37 2.72,0.47 0.92,0.1 1.84,0.15 2.77,0.14 0.93,-0.01 1.86,-0.08 2.77,-0.2 0.91,-0.12 1.81,-0.29 2.69,-0.52 0.88,-0.22 1.74,-0.5 2.59,-0.82 0.84,-0.32 1.66,-0.69 2.46,-1.1 0.79,-0.42 1.55,-0.88 2.29,-1.39 0.74,-0.51 1.45,-1.07 2.13,-1.66 0.68,-0.6 1.33,-1.24 1.94,-1.91 0.61,-0.68 1.19,-1.39 1.73,-2.14z"/>
 </g>
</svg>
