<?xml version="1.0" encoding="UTF-8"?>
<!DOCTYPE svg PUBLIC "-//W3C//DTD SVG 1.1//EN" "http://www.w3.org/Graphics/SVG/1.1/DTD/svg11.dtd">
<!-- Creator: CorelDRAW -->
<svg xmlns="http://www.w3.org/2000/svg" xml:space="preserve" width="10.9631mm" height="10.9631mm" version="1.1" style="shape-rendering:geometricPrecision; text-rendering:geometricPrecision; image-rendering:optimizeQuality; fill-rule:evenodd; clip-rule:evenodd"
viewBox="0 0 49.14 49.14"
 xmlns:xlink="http://www.w3.org/1999/xlink"
 xmlns:xodm="http://www.corel.com/coreldraw/odm/2003">
 <defs>
  <style type="text/css">
   <![CDATA[
    .fil0 {fill:#36293D;fill-rule:nonzero}
   ]]>
  </style>
 </defs>
 <g id="Layer_x0020_1">
  <metadata id="CorelCorpID_0Corel-Layer"/>
  <path class="fil0" d="M49.14 19.3c0,1.78 -0.22,3.49 -0.68,5.13 -0.46,1.65 -1.1,3.19 -1.95,4.62 -0.84,1.43 -1.84,2.73 -3.01,3.9 -1.17,1.17 -2.48,2.18 -3.91,3.02 -1.43,0.84 -2.98,1.49 -4.62,1.95 -1.64,0.46 -3.35,0.68 -5.12,0.68 -2.27,0 -4.47,-0.38 -6.6,-1.15 -2.13,-0.77 -4.05,-1.87 -5.78,-3.32l-14.48 14.48c-0.35,0.35 -0.76,0.52 -1.23,0.52 -0.48,0 -0.89,-0.18 -1.24,-0.52 -0.35,-0.35 -0.52,-0.76 -0.52,-1.24 0,-0.47 0.18,-0.88 0.52,-1.23l14.48 -14.48c-1.45,-1.72 -2.56,-3.64 -3.32,-5.78 -0.77,-2.12 -1.15,-4.32 -1.15,-6.6 0,-1.77 0.22,-3.48 0.68,-5.14 0.46,-1.66 1.1,-3.19 1.95,-4.62 0.84,-1.42 1.85,-2.72 3.02,-3.89 1.17,-1.17 2.46,-2.17 3.89,-3.01 1.42,-0.84 2.96,-1.49 4.61,-1.95 1.65,-0.46 3.36,-0.68 5.16,-0.68 1.77,0 3.48,0.22 5.12,0.68 1.65,0.46 3.19,1.1 4.62,1.95 1.43,0.84 2.74,1.84 3.91,3.01 1.17,1.17 2.17,2.48 3.01,3.91 0.84,1.43 1.49,2.98 1.95,4.62 0.46,1.64 0.68,3.35 0.68,5.12zm-3.51 0c0,-2.17 -0.41,-4.22 -1.24,-6.14 -0.83,-1.92 -1.97,-3.59 -3.39,-5.02 -1.42,-1.42 -3.1,-2.56 -5.02,-3.39 -1.92,-0.83 -3.97,-1.24 -6.14,-1.24 -2.18,0 -4.23,0.41 -6.15,1.24 -1.92,0.83 -3.59,1.97 -5.02,3.39 -1.42,1.42 -2.56,3.1 -3.39,5.02 -0.83,1.92 -1.24,3.97 -1.24,6.14 0,2.2 0.41,4.26 1.24,6.18 0.82,1.92 1.95,3.59 3.37,5.02 1.43,1.42 3.1,2.55 5.02,3.37 1.92,0.82 3.98,1.24 6.18,1.24 2.19,0 4.25,-0.41 6.17,-1.24 1.92,-0.82 3.59,-1.95 5.02,-3.37 1.42,-1.43 2.55,-3.1 3.37,-5.02 0.82,-1.92 1.24,-3.98 1.24,-6.18z"/>
 </g>
</svg>
